<?xml version="1.0" encoding="UTF-8"?>
<svg version="1.1" xmlns="http://www.w3.org/2000/svg" width="250" height="250">
<path d="M0 0 C12.21 0 24.42 0 37 0 C37 0.66 37 1.32 37 2 C37.66 2 38.32 2 39 2 C39.495 4.475 39.495 4.475 40 7 C40.66 7 41.32 7 42 7 C42.99 9.475 42.99 9.475 44 12 C44.33 11.34 44.66 10.68 45 10 C45.66 10 46.32 10 47 10 C47.33 8.35 47.66 6.7 48 5 C48.66 5 49.32 5 50 5 C50.144375 4.360625 50.28875 3.72125 50.4375 3.0625 C51 1 51 1 52 0 C54.59359322 -0.08851529 57.16039691 -0.11525945 59.75390625 -0.09765625 C60.52935287 -0.0962413 61.3047995 -0.09482635 62.10374451 -0.09336853 C64.59003494 -0.08775345 67.0762366 -0.07519846 69.5625 -0.0625 C71.24413933 -0.05748694 72.92578006 -0.0529237 74.60742188 -0.04882812 C78.73831566 -0.03777913 82.86914276 -0.02050445 87 0 C87.495 2.475 87.495 2.475 88 5 C88.66 5 89.32 5 90 5 C90.495 7.475 90.495 7.475 91 10 C91.66 10 92.32 10 93 10 C93.33 11.98 93.66 13.96 94 16 C94.66 16 95.32 16 96 16 C96.33 17.65 96.66 19.3 97 21 C97.66 21 98.32 21 99 21 C100.00484204 22.95585325 101.00373805 24.91476237 102 26.875 C102.556875 27.96554688 103.11375 29.05609375 103.6875 30.1796875 C105 33 105 33 105 35 C105.66 35 106.32 35 107 35 C109.61881031 38.92821547 109.28987737 42.43443139 109 47 C108.34 47.99 107.68 48.98 107 50 C106.34 50 105.68 50 105 50 C104.67 51.65 104.34 53.3 104 55 C103.34 55 102.68 55 102 55 C102 55.99 102 56.98 102 58 C101.01 58.495 101.01 58.495 100 59 C99.67 59.99 99.34 60.98 99 62 C98.34 62 97.68 62 97 62 C96.67 63.65 96.34 65.3 96 67 C95.34 67 94.68 67 94 67 C93.67 68.32 93.34 69.64 93 71 C92.34 71 91.68 71 91 71 C90.67 72.65 90.34 74.3 90 76 C89.34 76 88.68 76 88 76 C87.67 77.65 87.34 79.3 87 81 C86.34 81 85.68 81 85 81 C85 81.99 85 82.98 85 84 C84.01 84.495 84.01 84.495 83 85 C82.505 86.485 82.505 86.485 82 88 C81.34 88 80.68 88 80 88 C79.67 89.65 79.34 91.3 79 93 C78.34 93 77.68 93 77 93 C76.67 94.65 76.34 96.3 76 98 C75.34 98 74.68 98 74 98 C73.814375 98.9590625 73.814375 98.9590625 73.625 99.9375 C73.41875 100.618125 73.2125 101.29875 73 102 C70.02640551 103.48679725 67.33700821 103.11112605 64.0234375 103.09765625 C62.99556625 103.09553383 62.99556625 103.09553383 61.94692993 103.09336853 C59.75624239 103.08776675 57.5656567 103.07521406 55.375 103.0625 C53.89062648 103.05748522 52.40625135 103.05292228 50.921875 103.04882812 C47.28121685 103.03779677 43.64061836 103.02053099 40 103 C39.71253906 102.38125 39.42507812 101.7625 39.12890625 101.125 C38.06326422 98.85632432 38.06326422 98.85632432 35.9375 97 C33.92392778 94.92147384 33.40175906 93.81231342 33 91 C31.35 91.33 29.7 91.66 28 92 C27.87625 92.556875 27.7525 93.11375 27.625 93.6875 C26.94023145 96.22114364 26.00866237 98.57921032 25 101 C24.34 101 23.68 101 23 101 C23 101.66 23 102.32 23 103 C12.11 103 1.22 103 -10 103 C-10 102.34 -10 101.68 -10 101 C-10.66 101 -11.32 101 -12 101 C-13.65625 98.69921875 -13.65625 98.69921875 -15.5 95.6875 C-16.1084375 94.70136719 -16.716875 93.71523437 -17.34375 92.69921875 C-17.8903125 91.80847656 -18.436875 90.91773437 -19 90 C-19.66 89.01 -20.32 88.02 -21 87 C-21 86.01 -21 85.02 -21 84 C-21.66 84 -22.32 84 -23 84 C-24.40454102 82.21166992 -24.40454102 82.21166992 -26.00390625 79.73046875 C-26.86725586 78.39725586 -26.86725586 78.39725586 -27.74804688 77.03710938 C-28.34681641 76.09673828 -28.94558594 75.15636719 -29.5625 74.1875 C-30.16513672 73.25873047 -30.76777344 72.32996094 -31.38867188 71.37304688 C-35.85815581 64.42553256 -35.85815581 64.42553256 -37 61 C-36.34 61 -35.68 61 -35 61 C-34.731875 60.2575 -34.46375 59.515 -34.1875 58.75 C-33 56 -33 56 -31.4375 53.9375 C-29.93131681 51.907427 -29.58309956 50.41569819 -29 48 C-28.01 47.505 -28.01 47.505 -27 47 C-26.67 46.01 -26.34 45.02 -26 44 C-25.34 44 -24.68 44 -24 44 C-23.896875 43.29875 -23.79375 42.5975 -23.6875 41.875 C-22.90640997 38.60862353 -21.57941257 35.9528148 -20 33 C-19.34 33 -18.68 33 -18 33 C-16.92474806 30.34771188 -15.90543849 27.71631546 -15 25 C-14.34 24.67 -13.68 24.34 -13 24 C-12.67 23.01 -12.34 22.02 -12 21 C-11.34 21 -10.68 21 -10 21 C-9.896875 20.29875 -9.79375 19.5975 -9.6875 18.875 C-8.90640997 15.60862353 -7.57941257 12.9528148 -6 10 C-5.34 10 -4.68 10 -4 10 C-3.67 8.35 -3.34 6.7 -3 5 C-2.34 5 -1.68 5 -1 5 C-0.67 3.35 -0.34 1.7 0 0 Z M31 7 C30.73445313 7.54269531 30.46890625 8.08539063 30.1953125 8.64453125 C29.66550781 9.71767578 29.66550781 9.71767578 29.125 10.8125 C28.77695313 11.52019531 28.42890625 12.22789063 28.0703125 12.95703125 C27 15 27 15 25 18 C25 18.99 25 19.98 25 21 C24.34 21 23.68 21 23 21 C21.16958345 23.60108946 21.16958345 23.60108946 19.375 26.8125 C18.74335937 27.89144531 18.11171875 28.97039063 17.4609375 30.08203125 C15.77615383 32.9032168 15.77615383 32.9032168 16 36 C15.34 36 14.68 36 14 36 C14 36.66 14 37.32 14 38 C19.28 38 24.56 38 30 38 C30.33 36.35 30.66 34.7 31 33 C31.66 33 32.32 33 33 33 C33.67408308 31.73308493 34.33900497 30.46129251 35 29.1875 C35.37125 28.47980469 35.7425 27.77210937 36.125 27.04296875 C37.19685358 24.91079271 37.19685358 24.91079271 37 22 C37.99 21.67 38.98 21.34 40 21 C39.67 20.01 39.34 19.02 39 18 C38.34 18 37.68 18 37 18 C36.67 16.35 36.34 14.7 36 13 C35.34 13 34.68 13 34 13 C33.87625 12.195625 33.7525 11.39125 33.625 10.5625 C33.41875 9.716875 33.2125 8.87125 33 8 C32.34 7.67 31.68 7.34 31 7 Z M3.453125 9.8359375 C1.79132503 12.87407454 1.79132503 12.87407454 2 16 C1.34 16 0.68 16 0 16 C-0.33 17.65 -0.66 19.3 -1 21 C-1.66 21 -2.32 21 -3 21 C-3.33 22.98 -3.66 24.96 -4 27 C-4.99 27.33 -5.98 27.66 -7 28 C-9.36980013 30.95377498 -9.36980013 30.95377498 -9 35 C-9.99 35.33 -10.98 35.66 -12 36 C-12 36.99 -12 37.98 -12 39 C-12.66 39 -13.32 39 -14 39 C-14.495 41.475 -14.495 41.475 -15 44 C-15.66 44 -16.32 44 -17 44 C-17.33 45.98 -17.66 47.96 -18 50 C-19.485 50.495 -19.485 50.495 -21 51 C-22.64820195 53.60242414 -23 54.86248779 -23 58 C-24.485 58.495 -24.485 58.495 -26 59 C-26.83333333 60.91666667 -26.83333333 60.91666667 -27 63 C-26.67 63.66 -26.34 64.32 -26 65 C-25.34 65 -24.68 65 -24 65 C-23.67 66.65 -23.34 68.3 -23 70 C-22.34 70 -21.68 70 -21 70 C-20.71125 70.7425 -20.4225 71.485 -20.125 72.25 C-19.17697356 74.56739797 -18.15154089 76.77917115 -17 79 C-16.34 79 -15.68 79 -15 79 C-14.87625 79.804375 -14.7525 80.60875 -14.625 81.4375 C-14.41875 82.283125 -14.2125 83.12875 -14 84 C-13.34 84.33 -12.68 84.66 -12 85 C-11.67 85.99 -11.34 86.98 -11 88 C-10.34 88 -9.68 88 -9 88 C-8.566875 89.1446875 -8.566875 89.1446875 -8.125 90.3125 C-7.03730987 93.15029308 -7.03730987 93.15029308 -5 96 C-2.2114711 96.22107787 0.34653181 96.28107535 3.125 96.1875 C3.87910156 96.17396484 4.63320312 96.16042969 5.41015625 96.14648438 C7.27374127 96.11109985 9.13695978 96.05729167 11 96 C10.043419 94.22821947 9.08467012 92.45760924 8.125 90.6875 C7.59132812 89.70136719 7.05765625 88.71523437 6.5078125 87.69921875 C4.99277874 84.90413542 4.99277874 84.90413542 3 82 C3.1846566 76.59879449 5.52330268 73.16033824 8.5 68.875 C10.97758158 65.2621798 12.91720954 62.33116184 14 58 C33.47 58 52.94 58 73 58 C73 59.32 73 60.64 73 62 C72.34 62 71.68 62 71 62 C70.67 63.65 70.34 65.3 70 67 C69.34 67 68.68 67 68 67 C67.73445313 67.54269531 67.46890625 68.08539063 67.1953125 68.64453125 C66.84210938 69.35996094 66.48890625 70.07539062 66.125 70.8125 C65.77695313 71.52019531 65.42890625 72.22789063 65.0703125 72.95703125 C64 75 64 75 62 78 C62 78.99 62 79.98 62 81 C61.34 81 60.68 81 60 81 C59.34 82.093125 58.68 83.18625 58 84.3125 C57.443125 85.23482422 57.443125 85.23482422 56.875 86.17578125 C55.78376001 88.11361926 55.78376001 88.11361926 56 91 C55.34 91 54.68 91 54 91 C53.34 92.65 52.68 94.3 52 96 C54.41936317 96.16249454 56.82781859 96.28097817 59.25 96.375 C59.93191406 96.42527344 60.61382812 96.47554688 61.31640625 96.52734375 C63.61634637 96.6568371 63.61634637 96.6568371 67 96 C69.74160629 92.87043056 71 91.19207114 71 87 C71.66 87 72.32 87 73 87 C73.33 85.35 73.66 83.7 74 82 C74.99 81.67 75.98 81.34 77 81 C78.51570177 78.89598568 79.86526126 76.84387442 81.1875 74.625 C81.73954102 73.73941406 81.73954102 73.73941406 82.30273438 72.8359375 C84.01741309 70.01101227 85 68.36248948 85 65 C85.99 64.67 86.98 64.34 88 64 C88 63.01 88 62.02 88 61 C88.66 61 89.32 61 90 61 C90.33 59.35 90.66 57.7 91 56 C91.99 55.67 92.98 55.34 94 55 C94 54.01 94 53.02 94 52 C94.66 52 95.32 52 96 52 C97.36819481 50.31792068 97.36819481 50.31792068 98.625 48.1875 C99.29402344 47.12595703 99.29402344 47.12595703 99.9765625 46.04296875 C101.22394864 43.93378793 101.22394864 43.93378793 101 41 C100.34 41 99.68 41 99 41 C98.814375 39.8553125 98.814375 39.8553125 98.625 38.6875 C98.11897208 35.79732864 98.11897208 35.79732864 96 33 C95.34 33 94.68 33 94 33 C93.505 30.03 93.505 30.03 93 27 C92.34 27 91.68 27 91 27 C90.67 25.35 90.34 23.7 90 22 C89.34 22 88.68 22 88 22 C87.505 19.03 87.505 19.03 87 16 C86.34 16 85.68 16 85 16 C84.896875 15.443125 84.79375 14.88625 84.6875 14.3125 C83.79459392 11.30908863 83.02173229 9.43891514 81 7 C78.05906948 6.62140441 75.72355042 6.52224386 72.8125 6.6875 C71.68811523 6.72133789 71.68811523 6.72133789 70.54101562 6.75585938 C68.6931553 6.81470843 66.84632333 6.90439062 65 7 C65.99 7.495 65.99 7.495 67 8 C67.625 10.5625 67.625 10.5625 68 13 C68.66 13 69.32 13 70 13 C70.495 14.98 70.495 14.98 71 17 C71.66 17 72.32 17 73 17 C73 19.31 73 21.62 73 24 C71.515 24.495 71.515 24.495 70 25 C70 25.99 70 26.98 70 28 C69.34 28 68.68 28 68 28 C67.60167969 28.73605469 67.20335937 29.47210938 66.79296875 30.23046875 C66.26316406 31.20628906 65.73335938 32.18210937 65.1875 33.1875 C64.66542969 34.15042969 64.14335937 35.11335938 63.60546875 36.10546875 C63.07566406 37.06066406 62.54585938 38.01585938 62 39 C61.38592537 40.30664864 61.38592537 40.30664864 60.75944519 41.63969421 C59 44 59 44 56.39936829 44.63923645 C54.83716805 44.6492292 54.83716805 44.6492292 53.2434082 44.65942383 C51.47191154 44.68888847 51.47191154 44.68888847 49.66462708 44.71894836 C48.38955795 44.71501572 47.11448883 44.71108307 45.80078125 44.70703125 C44.49545944 44.72215256 43.19013763 44.73727386 41.84526062 44.75285339 C38.3780154 44.79274011 34.91129525 44.80289598 31.44384766 44.80688477 C27.90445998 44.81620961 24.36538171 44.85361881 20.82617188 44.88867188 C13.88415852 44.95328413 6.94229567 44.98649424 0 45 C0.5775 44.16855469 1.155 43.33710937 1.75 42.48046875 C2.4925 41.39378906 3.235 40.30710938 4 39.1875 C4.7425 38.10855469 5.485 37.02960937 6.25 35.91796875 C8.25716346 33.1382871 8.25716346 33.1382871 8 30 C8.66 30 9.32 30 10 30 C10.33 28.35 10.66 26.7 11 25 C11.66 25 12.32 25 13 25 C14.72264494 21.70450534 16.29445932 18.66881155 17 15 C17.66 15 18.32 15 19 15 C19.33 13.35 19.66 11.7 20 10 C20.66 10 21.32 10 22 10 C22.33 9.01 22.66 8.02 23 7 C20.24763726 6.83774281 17.50482524 6.7190672 14.75 6.625 C13.97269531 6.57472656 13.19539063 6.52445313 12.39453125 6.47265625 C7.90359903 6.35750414 6.59411564 6.33845406 3.453125 9.8359375 Z M56 8 C53.54420303 11.68564084 53.54420303 11.68564084 53 16 C52.34 16 51.68 16 51 16 C50.67 17.65 50.34 19.3 50 21 C49.34 21 48.68 21 48 21 C48 21.99 48 22.98 48 24 C47.34 24.33 46.68 24.66 46 25 C43.05436112 28.6476813 43.05436112 28.6476813 42 33 C41.34 33 40.68 33 40 33 C39.01 35.475 39.01 35.475 38 38 C40.6058889 38.13494246 43.20482111 38.23402299 45.8125 38.3125 C46.55048828 38.35439453 47.28847656 38.39628906 48.04882812 38.43945312 C50.48739846 38.54863607 50.48739846 38.54863607 54 38 C55.96758541 35.8023343 55.96758541 35.8023343 57 33 C58.3316243 30.95192431 59.66672032 28.90650665 61.01171875 26.8671875 C62.23390138 24.91018396 62.23390138 24.91018396 62 22 C62.66 22 63.32 22 64 22 C63.39868244 18.92584841 62.44305824 16.9318903 60.5625 14.4375 C58.979054 12.31520969 57.47141611 10.20712416 56 8 Z M20 65 C19.67 65.99 19.34 66.98 19 68 C18.34 68 17.68 68 17 68 C16.67 69.65 16.34 71.3 16 73 C15.34 73 14.68 73 14 73 C13.67 74.65 13.34 76.3 13 78 C12.34 78 11.68 78 11 78 C11 79.32 11 80.64 11 82 C11.66 82 12.32 82 13 82 C13.185625 83.2065625 13.185625 83.2065625 13.375 84.4375 C13.58125 85.283125 13.7875 86.12875 14 87 C14.66 87.33 15.32 87.66 16 88 C17.0409066 89.64142963 18.04504326 91.30712215 19 93 C19.2475 92.443125 19.495 91.88625 19.75 91.3125 C21 89 21 89 23.125 86.4375 C25.30485538 84.11622611 25.30485538 84.11622611 25 81 C25.66 81 26.32 81 27 81 C27.67408308 79.73308493 28.33900497 78.46129251 29 77.1875 C29.37125 76.47980469 29.7425 75.77210937 30.125 75.04296875 C31.19685358 72.91079271 31.19685358 72.91079271 31 70 C31.66 70 32.32 70 33 70 C33.66 68.35 34.32 66.7 35 65 C30.05 65 25.1 65 20 65 Z M43 65 C38.7763932 71.95650161 38.7763932 71.95650161 39 76 C38.34 76 37.68 76 37 76 C36.87625 76.804375 36.7525 77.60875 36.625 78.4375 C36.41875 79.283125 36.2125 80.12875 36 81 C35.34 81.33 34.68 81.66 34 82 C34.66 82 35.32 82 36 82 C36.33 82.99 36.66 83.98 37 85 C37.66 85 38.32 85 39 85 C39.103125 85.763125 39.20625 86.52625 39.3125 87.3125 C40.04711194 90.18416484 40.6716065 91.23042094 43 93 C43.66 93 44.32 93 45 93 C45 92.01 45 91.02 45 90 C45.66 90 46.32 90 47 90 C47.33 88.35 47.66 86.7 48 85 C48.66 85 49.32 85 50 85 C51.72264494 81.70450534 53.29445932 78.66881155 54 75 C54.66 75 55.32 75 56 75 C57.07525194 72.34771188 58.09456151 69.71631546 59 67 C59.66 67 60.32 67 61 67 C61 66.34 61 65.68 61 65 C55.06 65 49.12 65 43 65 Z " fill="#178891" transform="translate(88,20)"/>
<path d="M0 0 C2.22513434 -0.00217016 4.44975896 -0.02030392 6.67480469 -0.03930664 C14.6724777 -0.06984236 22.3073425 0.32651787 30.12792969 2.18530273 C30.12792969 2.84530273 30.12792969 3.50530273 30.12792969 4.18530273 C32.10792969 4.51530273 34.08792969 4.84530273 36.12792969 5.18530273 C36.12792969 5.84530273 36.12792969 6.50530273 36.12792969 7.18530273 C36.96324219 7.24717773 36.96324219 7.24717773 37.81542969 7.31030273 C41.37967949 8.6589378 42.94395569 11.15200552 45.12792969 14.18530273 C45.12792969 15.17530273 45.12792969 16.16530273 45.12792969 17.18530273 C45.78792969 17.18530273 46.44792969 17.18530273 47.12792969 17.18530273 C48.00152555 20.20081337 48.25649888 22.89385567 48.26074219 26.02905273 C48.26203125 26.94557617 48.26332031 27.86209961 48.26464844 28.80639648 C48.26078125 29.75643555 48.25691406 30.70647461 48.25292969 31.68530273 C48.25679688 32.6353418 48.26066406 33.58538086 48.26464844 34.56420898 C48.26335937 35.48073242 48.26207031 36.39725586 48.26074219 37.34155273 C48.25961426 38.17493164 48.25848633 39.00831055 48.25732422 39.86694336 C48.13257527 42.10206791 47.74933694 44.04030611 47.12792969 46.18530273 C46.46792969 46.18530273 45.80792969 46.18530273 45.12792969 46.18530273 C45.03511719 47.29905273 45.03511719 47.29905273 44.94042969 48.43530273 C43.87364458 52.04596003 42.14549899 53.02989609 39.12792969 55.18530273 C38.63292969 55.70092773 38.13792969 56.21655273 37.62792969 56.74780273 C34.23935045 59.99519117 31.84510251 61.18530273 27.12792969 61.18530273 C27.12792969 61.84530273 27.12792969 62.50530273 27.12792969 63.18530273 C25.73767578 63.38446289 25.73767578 63.38446289 24.31933594 63.58764648 C23.12179688 63.76424805 21.92425781 63.94084961 20.69042969 64.12280273 C18.89798828 64.38383789 18.89798828 64.38383789 17.06933594 64.65014648 C14.24837293 64.87515486 14.24837293 64.87515486 13.12792969 66.18530273 C8.52957637 66.44021937 3.92000499 66.37053559 -0.68457031 66.37280273 C-2.63073242 66.39117187 -2.63073242 66.39117187 -4.61621094 66.40991211 C-6.4850293 66.4128125 -6.4850293 66.4128125 -8.39160156 66.41577148 C-10.11020386 66.42193481 -10.11020386 66.42193481 -11.86352539 66.42822266 C-14.87207031 66.18530273 -14.87207031 66.18530273 -18.87207031 64.18530273 C-18.87207031 43.39530273 -18.87207031 22.60530273 -18.87207031 1.18530273 C-12.55931043 -0.07724924 -6.40655069 -0.00069849 0 0 Z M0.12792969 13.18530273 C0.12792969 26.05530273 0.12792969 38.92530273 0.12792969 52.18530273 C12.49289626 52.75748903 12.49289626 52.75748903 22.97949219 47.53295898 C28.27489188 41.59759392 28.47402188 36.55405961 28.40917969 28.72436523 C28.01832747 23.80614153 27.0216781 21.17398298 24.12792969 17.18530273 C21.51320298 16.05714909 21.51320298 16.05714909 19.12792969 16.18530273 C19.12792969 15.52530273 19.12792969 14.86530273 19.12792969 14.18530273 C13.38975771 12.57896367 13.38975771 12.57896367 0.12792969 13.18530273 Z " fill="#178790" transform="translate(126.8720703125,134.814697265625)"/>
<path d="M0 0 C2.25597379 -0.00217315 4.51144748 -0.02030814 6.76733398 -0.03930664 C14.11860251 -0.0671026 20.97006001 0.14427012 28.09350586 2.18530273 C28.09350586 2.84530273 28.09350586 3.50530273 28.09350586 4.18530273 C29.41350586 4.51530273 30.73350586 4.84530273 32.09350586 5.18530273 C32.09350586 5.84530273 32.09350586 6.50530273 32.09350586 7.18530273 C32.73288086 7.43280273 33.37225586 7.68030273 34.03100586 7.93530273 C36.09350586 9.18530273 36.09350586 9.18530273 36.84350586 10.87280273 C37.31058759 15.19330874 37.47541277 19.03958201 36.09350586 23.18530273 C35.43350586 23.18530273 34.77350586 23.18530273 34.09350586 23.18530273 C33.76350586 24.50530273 33.43350586 25.82530273 33.09350586 27.18530273 C31.77350586 27.51530273 30.45350586 27.84530273 29.09350586 28.18530273 C29.09350586 29.17530273 29.09350586 30.16530273 29.09350586 31.18530273 C29.83600586 31.41217773 30.57850586 31.63905273 31.34350586 31.87280273 C34.78686917 33.51622613 36.04274768 34.96268273 38.09350586 38.18530273 C38.48751019 41.03893701 38.65587738 43.41249755 38.59350586 46.24780273 C38.60897461 46.95485352 38.62444336 47.6619043 38.64038086 48.39038086 C38.61389408 51.91643292 38.35010045 53.84931105 36.18725586 56.68139648 C34.09350586 58.18530273 34.09350586 58.18530273 32.09350586 58.18530273 C32.09350586 58.84530273 32.09350586 59.50530273 32.09350586 60.18530273 C22.78147027 66.83035597 10.50345479 66.64410205 -0.46899414 66.49780273 C-1.71229492 66.50102539 -2.9555957 66.50424805 -4.23657227 66.50756836 C-13.37064302 66.4532283 -13.37064302 66.4532283 -17.90649414 64.18530273 C-17.90649414 43.39530273 -17.90649414 22.60530273 -17.90649414 1.18530273 C-11.99497268 -0.29257763 -6.06020693 -0.00065353 0 0 Z M1.09350586 13.18530273 C1.09350586 17.14530273 1.09350586 21.10530273 1.09350586 25.18530273 C8.11502028 25.62758471 8.11502028 25.62758471 14.65600586 23.49780273 C17.21443376 21.38437537 17.21443376 21.38437537 18.15600586 18.62280273 C18.30492858 16.20218583 18.30492858 16.20218583 17.03881836 14.54467773 C14.06346179 12.4655129 11.476887 12.8995216 7.90600586 12.99780273 C5.99754883 13.0384082 5.99754883 13.0384082 4.05053711 13.07983398 C3.0747168 13.11463867 2.09889648 13.14944336 1.09350586 13.18530273 Z M1.09350586 37.18530273 C1.09350586 42.13530273 1.09350586 47.08530273 1.09350586 52.18530273 C9.21509053 52.57272354 9.21509053 52.57272354 17.09350586 51.18530273 C17.09350586 50.52530273 17.09350586 49.86530273 17.09350586 49.18530273 C17.75350586 49.18530273 18.41350586 49.18530273 19.09350586 49.18530273 C19.49260442 44.50529414 19.49260442 44.50529414 17.90600586 40.24780273 C15.53308968 38.85678291 13.79664162 38.96612956 11.09350586 39.18530273 C11.09350586 38.52530273 11.09350586 37.86530273 11.09350586 37.18530273 C7.79350586 37.18530273 4.49350586 37.18530273 1.09350586 37.18530273 Z " fill="#178A93" transform="translate(201.906494140625,134.814697265625)"/>
<path d="M0 0 C1.26585937 0.00064453 2.53171875 0.00128906 3.8359375 0.00195312 C14.00970255 0.05055391 14.00970255 0.05055391 17.75 1.1875 C17.75 3.8275 17.75 6.4675 17.75 9.1875 C17.09 9.1875 16.43 9.1875 15.75 9.1875 C15.75 10.8375 15.75 12.4875 15.75 14.1875 C13.41461858 14.96596047 11.96702974 15.23220507 9.53125 14.73046875 C1.21444979 13.10682377 -7.71210879 13.13937324 -15.25 17.1875 C-18.04316669 19.98066669 -19.6671116 22.25300328 -20.25 26.1875 C-20.91 26.1875 -21.57 26.1875 -22.25 26.1875 C-22.25 30.4775 -22.25 34.7675 -22.25 39.1875 C-21.59 39.1875 -20.93 39.1875 -20.25 39.1875 C-19.96125 40.156875 -19.6725 41.12625 -19.375 42.125 C-18.60785318 45.29414203 -18.60785318 45.29414203 -16.25 46.1875 C-16.25 46.8475 -16.25 47.5075 -16.25 48.1875 C-14.6 48.5175 -12.95 48.8475 -11.25 49.1875 C-11.25 49.8475 -11.25 50.5075 -11.25 51.1875 C-8.72909222 51.2147367 -6.20848543 51.23445207 -3.6875 51.25 C-2.98302734 51.25837891 -2.27855469 51.26675781 -1.55273438 51.27539062 C2.97952425 51.29627661 7.26053936 50.89227318 11.75 50.1875 C12.74 50.1875 13.73 50.1875 14.75 50.1875 C16.68270447 52.12020447 16.40374251 55.59056881 16.75 58.1875 C17.06966139 59.85684283 17.39731066 61.5248217 17.75 63.1875 C10.91945764 66.30650669 5.0758912 66.61427747 -2.375 66.5 C-3.43332031 66.50322266 -4.49164063 66.50644531 -5.58203125 66.50976562 C-10.86253127 66.47332554 -15.31551816 66.27824636 -20.25 64.1875 C-21.57911682 63.83773242 -22.91082739 63.49653983 -24.25 63.1875 C-24.25 62.5275 -24.25 61.8675 -24.25 61.1875 C-25.9 60.8575 -27.55 60.5275 -29.25 60.1875 C-29.25 59.5275 -29.25 58.8675 -29.25 58.1875 C-30.11625 58.0946875 -30.11625 58.0946875 -31 58 C-34.13257571 56.8687921 -35.28460851 54.80802199 -37.25 52.1875 C-37.91 51.8575 -38.57 51.5275 -39.25 51.1875 C-41.90751509 45.5730315 -41.54605693 39.75933883 -41.5 33.6875 C-41.50773437 32.66785156 -41.51546875 31.64820313 -41.5234375 30.59765625 C-41.50993884 25.4074198 -41.3421513 21.03597761 -39.25 16.1875 C-38.59 16.1875 -37.93 16.1875 -37.25 16.1875 C-37.023125 15.445 -36.79625 14.7025 -36.5625 13.9375 C-34.9910439 10.6449253 -33.25004284 9.21252891 -30.25 7.1875 C-29.59 7.1875 -28.93 7.1875 -28.25 7.1875 C-28.25 6.5275 -28.25 5.8675 -28.25 5.1875 C-26.27 4.8575 -24.29 4.5275 -22.25 4.1875 C-22.25 3.5275 -22.25 2.8675 -22.25 2.1875 C-14.83624335 -0.16888245 -7.73160344 -0.07572189 0 0 Z " fill="#178790" transform="translate(51.25,134.8125)"/>
<path d="M0 0 C5.94 0 11.88 0 18 0 C18 21.45 18 42.9 18 65 C14.20068559 65.9498286 11.20357966 66.13371462 7.3125 66.125 C6.15363281 66.12757813 4.99476562 66.13015625 3.80078125 66.1328125 C1 66 1 66 0 65 C-0.09409479 62.97505769 -0.11743122 60.9468013 -0.11352539 58.91967773 C-0.11344986 57.61840439 -0.11337433 56.31713104 -0.11329651 54.97642517 C-0.10818909 53.54548098 -0.10297308 52.11453718 -0.09765625 50.68359375 C-0.09579203 49.2277074 -0.09436815 47.77182043 -0.09336853 46.31593323 C-0.08954365 42.47720621 -0.07971364 38.63851681 -0.06866455 34.79980469 C-0.05844978 30.88542184 -0.05387077 26.97103294 -0.04882812 23.05664062 C-0.03809133 15.37107459 -0.02049479 7.68554735 0 0 Z " fill="#188B94" transform="translate(78,135)"/>
<path d="M0 0 C1.134375 0.020625 2.26875 0.04125 3.4375 0.0625 C4.0975 2.0425 4.7575 4.0225 5.4375 6.0625 C6.0975 4.0825 6.7575 2.1025 7.4375 0.0625 C10.0775 0.0625 12.7175 0.0625 15.4375 0.0625 C15.4375 6.3325 15.4375 12.6025 15.4375 19.0625 C13.4575 19.0625 11.4775 19.0625 9.4375 19.0625 C9.1075 18.4025 8.7775 17.7425 8.4375 17.0625 C8.1075 17.3925 7.7775 17.7225 7.4375 18.0625 C5.77083333 18.0625 4.10416667 18.0625 2.4375 18.0625 C2.1075 18.3925 1.7775 18.7225 1.4375 19.0625 C-0.56208364 19.10330783 -2.56295254 19.10504356 -4.5625 19.0625 C-4.58933987 16.08327407 -4.60926037 13.10428705 -4.625 10.125 C-4.63337891 9.27486328 -4.64175781 8.42472656 -4.65039062 7.54882812 C-4.65361328 6.73994141 -4.65683594 5.93105469 -4.66015625 5.09765625 C-4.66539307 4.3487915 -4.67062988 3.59992676 -4.67602539 2.82836914 C-4.46021443 -0.52853559 -3.45377948 0.06059262 0 0 Z " fill="#188B94" transform="translate(21.5625,212.9375)"/>
<path d="M0 0 C2.31 0 4.62 0 7 0 C7 0.66 7 1.32 7 2 C7.66 2 8.32 2 9 2 C9.33 5.3 9.66 8.6 10 12 C10.66 12 11.32 12 12 12 C12.33 14.31 12.66 16.62 13 19 C10.69 19 8.38 19 6 19 C6 17.68 6 16.36 6 15 C4.68 15 3.36 15 2 15 C1.67 16.32 1.34 17.64 1 19 C-0.98 19 -2.96 19 -5 19 C-4.5464821 11.97047248 -2.87940913 6.4150557 0 0 Z " fill="#178890" transform="translate(57,213)"/>
<path d="M0 0 C2.64 0 5.28 0 8 0 C8.33 1.98 8.66 3.96 9 6 C9.66 6 10.32 6 11 6 C11.33872513 7.41538717 11.67074624 8.83237963 12 10.25 C12.185625 11.03890625 12.37125 11.8278125 12.5625 12.640625 C13 15 13 15 13 19 C10.69 19 8.38 19 6 19 C6 17.68 6 16.36 6 15 C5.01 15 4.02 15 3 15 C2.67 16.32 2.34 17.64 2 19 C0.02 19 -1.96 19 -4 19 C-4 15.46648529 -3.72923657 13.80700882 -2.5625 10.625 C-1.32544324 7.09472009 -0.47749633 3.72447139 0 0 Z " fill="#188B94" transform="translate(227,213)"/>
<path d="M0 0 C2.64 0 5.28 0 8 0 C8.73440998 1.96955403 9.46836632 3.93927933 10.19921875 5.91015625 C10.80951409 7.50287825 11.48448807 9.07097362 12.1875 10.625 C13.174123 13.50897492 13.14076409 15.97357207 13 19 C11.02 19 9.04 19 7 19 C6.67 17.68 6.34 16.36 6 15 C4.68 15 3.36 15 2 15 C2 16.32 2 17.64 2 19 C0.02 19 -1.96 19 -4 19 C-3.67 15.7 -3.34 12.4 -3 9 C-2.34 9 -1.68 9 -1 9 C-0.67 6.03 -0.34 3.06 0 0 Z " fill="#188B94" transform="translate(117,213)"/>
<path d="M0 0 C5.94 0 11.88 0 18 0 C18 21.45 18 42.9 18 65 C17.34 65 16.68 65 16 65 C16 44.21 16 23.42 16 2 C11.05 2 6.1 2 1 2 C1 22.79 1 43.58 1 65 C0.67 65 0.34 65 0 65 C0 43.55 0 22.1 0 0 Z " fill="#116166" transform="translate(78,135)"/>
<path d="M0 0 C1.21236328 0.02707031 1.21236328 0.02707031 2.44921875 0.0546875 C3.37154297 0.08949219 3.37154297 0.08949219 4.3125 0.125 C4.3125 2.105 4.3125 4.085 4.3125 6.125 C2.9925 6.455 1.6725 6.785 0.3125 7.125 C1.6325 7.785 2.9525 8.445 4.3125 9.125 C4.3125 9.785 4.3125 10.445 4.3125 11.125 C4.9725 11.125 5.6325 11.125 6.3125 11.125 C5.93626963 13.75861256 5.26035432 15.19720172 3.6875 17.375 C0.45227092 19.758853 -1.76066156 19.48859615 -5.6875 19.125 C-6.3475 18.795 -7.0075 18.465 -7.6875 18.125 C-7.6875 16.145 -7.6875 14.165 -7.6875 12.125 C-5.3775 12.785 -3.0675 13.445 -0.6875 14.125 C-0.6875 13.465 -0.6875 12.805 -0.6875 12.125 C-1.656875 11.980625 -2.62625 11.83625 -3.625 11.6875 C-6.6875 11.125 -6.6875 11.125 -7.6875 10.125 C-8.05836093 4.2839404 -8.05836093 4.2839404 -7.6875 2.125 C-4.48369983 -0.01086678 -3.66810033 -0.10632175 0 0 Z " fill="#157C84" transform="translate(179.6875,212.875)"/>
<path d="M0 0 C2.31 0 4.62 0 7 0 C7.33 1.32 7.66 2.64 8 4 C8.391875 3.34 8.78375 2.68 9.1875 2 C11 0 11 0 13.6875 -0.25 C14.8321875 -0.12625 14.8321875 -0.12625 16 0 C16.33 0.66 16.66 1.32 17 2 C16.38125 2.99 15.7625 3.98 15.125 5 C12.40169189 9.44180943 12.20574658 13.88719751 12 19 C9.66705225 19.04241723 7.33297433 19.04092937 5 19 C3.18884044 17.18884044 3.61800552 14.38721773 3.4375 11.9375 C3.35371094 10.83277344 3.26992187 9.72804687 3.18359375 8.58984375 C3.09271484 7.30787109 3.09271484 7.30787109 3 6 C2.34 6 1.68 6 1 6 C0.67 4.02 0.34 2.04 0 0 Z " fill="#188B94" transform="translate(142,213)"/>
<path d="M0 0 C0.99 0 1.98 0 3 0 C3 20.79 3 41.58 3 63 C2.01 63 1.02 63 0 63 C0 42.21 0 21.42 0 0 Z " fill="#14747B" transform="translate(184,136)"/>
<path d="M0 0 C1.98 0 3.96 0 6 0 C6 4.62 6 9.24 6 14 C8.64 14 11.28 14 14 14 C13.67 15.65 13.34 17.3 13 19 C8.71 19 4.42 19 0 19 C0 12.73 0 6.46 0 0 Z " fill="#16848C" transform="translate(85,213)"/>
<path d="M0 0 C4.53489627 -0.04986353 9.0696289 -0.08593637 13.60473633 -0.10986328 C15.14382715 -0.11985006 16.68289935 -0.13344419 18.22192383 -0.15087891 C26.37701039 -0.24087337 34.08976364 -0.28577933 42 2 C42 2.66 42 3.32 42 4 C43.32 4.33 44.64 4.66 46 5 C46 5.66 46 6.32 46 7 C46.639375 7.2475 47.27875 7.495 47.9375 7.75 C50 9 50 9 50.75 10.6875 C51.65116279 19.02325581 51.65116279 19.02325581 49 23 C48.98582031 22.19175781 48.97164062 21.38351563 48.95703125 20.55078125 C48.72098166 13.87991364 48.72098166 13.87991364 46 7.9375 C36.85181109 2.02929466 26.91580433 2.46335285 16.4375 2.3125 C14.8404677 2.27927239 13.24346123 2.24477784 11.64648438 2.20898438 C7.76446676 2.12470507 3.88250128 2.05760577 0 2 C0 1.34 0 0.68 0 0 Z " fill="#10595F" transform="translate(188,135)"/>
<path d="M0 0 C1.98 0 3.96 0 6 0 C6 6.27 6 12.54 6 19 C4.02 19 2.04 19 0 19 C0 12.73 0 6.46 0 0 Z " fill="#188B94" transform="translate(201,213)"/>
<path d="M0 0 C2.64 0.33 5.28 0.66 8 1 C8 1.66 8 2.32 8 3 C10.97 3.495 10.97 3.495 14 4 C14 4.66 14 5.32 14 6 C14.556875 6.04125 15.11375 6.0825 15.6875 6.125 C19.2517498 7.47363506 20.816026 9.96670278 23 13 C23 13.99 23 14.98 23 16 C23.66 16 24.32 16 25 16 C25.33 17.65 25.66 19.3 26 21 C25.34 21 24.68 21 24 21 C23.68546875 20.39671875 23.3709375 19.7934375 23.046875 19.171875 C19.1096658 11.43083868 19.1096658 11.43083868 12 7 C12 6.34 12 5.68 12 5 C9.69 4.67 7.38 4.34 5 4 C5 3.34 5 2.68 5 2 C3.35 2 1.7 2 0 2 C0 1.34 0 0.68 0 0 Z " fill="#08292B" transform="translate(149,136)"/>
<path d="M0 0 C2.97 0.495 2.97 0.495 6 1 C6 1.66 6 2.32 6 3 C7.32 3.33 8.64 3.66 10 4 C10 4.66 10 5.32 10 6 C10.639375 6.2475 11.27875 6.495 11.9375 6.75 C14 8 14 8 14.75 9.6875 C15.65116279 18.02325581 15.65116279 18.02325581 13 22 C12.98582031 21.19175781 12.97164062 20.38351563 12.95703125 19.55078125 C12.73945359 12.8389917 12.73945359 12.8389917 9.875 6.9375 C6.63978909 4.75724917 3.65093758 3.36015321 0 2 C0 1.34 0 0.68 0 0 Z " fill="#0C4245" transform="translate(224,136)"/>
<path d="M0 0 C0.33 0 0.66 0 1 0 C1 1.65 1 3.3 1 5 C0.0409375 5.37125 0.0409375 5.37125 -0.9375 5.75 C-3.15459658 6.78940378 -3.15459658 6.78940378 -3.625 8.875 C-3.74875 9.57625 -3.8725 10.2775 -4 11 C-4.63654342 12.3479743 -5.29605388 13.68596724 -6 15 C-6.66 15 -7.32 15 -8 15 C-8.33 16.65 -8.66 18.3 -9 20 C-9.66 20 -10.32 20 -11 20 C-11 20.66 -11 21.32 -11 22 C-11.66 21.67 -12.32 21.34 -13 21 C-12.505 19.515 -12.505 19.515 -12 18 C-11.34 18 -10.68 18 -10 18 C-8.92474806 15.34771188 -7.90543849 12.71631546 -7 10 C-6.34 9.67 -5.68 9.34 -5 9 C-4.67 8.01 -4.34 7.02 -4 6 C-3.34 6 -2.68 6 -2 6 C-1.855625 5.195625 -1.71125 4.39125 -1.5625 3.5625 C-1 1 -1 1 0 0 Z " fill="#082628" transform="translate(80,35)"/>
<path d="M0 0 C0.66 0 1.32 0 2 0 C5 5.75 5 5.75 5 8 C5.66 8 6.32 8 7 8 C8.0625 9.8125 8.0625 9.8125 9 12 C8.67 12.99 8.34 13.98 8 15 C7.34 13.35 6.68 11.7 6 10 C5.34 10 4.68 10 4 10 C4 9.34 4 8.68 4 8 C3.34 8 2.68 8 2 8 C1.34 5.36 0.68 2.72 0 0 Z " fill="#0B3B3E" transform="translate(188,47)"/>
<path d="M0 0 C2.64 0.33 5.28 0.66 8 1 C8 1.66 8 2.32 8 3 C10.97 3.495 10.97 3.495 14 4 C14 4.99 14 5.98 14 7 C13.34 7 12.68 7 12 7 C12 6.34 12 5.68 12 5 C9.69 4.67 7.38 4.34 5 4 C5 3.34 5 2.68 5 2 C3.35 2 1.7 2 0 2 C0 1.34 0 0.68 0 0 Z " fill="#0C4447" transform="translate(149,136)"/>
<path d="M0 0 C0.66 0 1.32 0 2 0 C2.37254569 3.35291118 2.31050198 4.6038423 0.1875 7.3125 C-2 9 -2 9 -5 9 C-4.34 7.68 -3.68 6.36 -3 5 C-2.34 5 -1.68 5 -1 5 C-0.67 3.35 -0.34 1.7 0 0 Z " fill="#0D494E" transform="translate(136,25)"/>
<path d="M0 0 C0.99 0.495 0.99 0.495 2 1 C2 1.99 2 2.98 2 4 C2.66 4 3.32 4 4 4 C4 8.62 4 13.24 4 18 C3.67 18 3.34 18 3 18 C3 14.37 3 10.74 3 7 C2.34 7 1.68 7 1 7 C0.67 4.69 0.34 2.38 0 0 Z " fill="#105D63" transform="translate(171,153)"/>
<path d="M0 0 C0.33 0.66 0.66 1.32 1 2 C0.67 2.99 0.34 3.98 0 5 C-0.66 5 -1.32 5 -2 5 C-2.33 7.31 -2.66 9.62 -3 12 C-3.99 11.34 -4.98 10.68 -6 10 C-6 9.34 -6 8.68 -6 8 C-5.34 8 -4.68 8 -4 8 C-3.71125 7.236875 -3.4225 6.47375 -3.125 5.6875 C-2 3 -2 3 0 0 Z " fill="#082B2D" transform="translate(57,73)"/>
<path d="M0 0 C0.33 0 0.66 0 1 0 C1 1.65 1 3.3 1 5 C0.0409375 5.37125 0.0409375 5.37125 -0.9375 5.75 C-3.18741541 6.81562433 -3.18741541 6.81562433 -3.75 9.125 C-3.8325 9.74375 -3.915 10.3625 -4 11 C-4.33 10.34 -4.66 9.68 -5 9 C-4.67 8.01 -4.34 7.02 -4 6 C-3.34 6 -2.68 6 -2 6 C-1.855625 5.195625 -1.71125 4.39125 -1.5625 3.5625 C-1 1 -1 1 0 0 Z " fill="#0D464A" transform="translate(80,35)"/>
<path d="M0 0 C0.66 0 1.32 0 2 0 C2.33 1.98 2.66 3.96 3 6 C3.66 6 4.32 6 5 6 C5.33 7.65 5.66 9.3 6 11 C3.57223333 9.70519111 2.23032326 8.64161481 1.2890625 6.01953125 C0.80217802 4.0261274 0.39608139 2.01341375 0 0 Z " fill="#0A3639" transform="translate(179,30)"/>
<path d="M0 0 C-0.33 0.99 -0.66 1.98 -1 3 C-3.31 3.33 -5.62 3.66 -8 4 C-7.67 3.01 -7.34 2.02 -7 1 C-4.52260646 0.09162237 -2.66420516 0 0 0 Z " fill="#0F555A" transform="translate(36,136)"/>
<path d="M0 0 C0.66 0 1.32 0 2 0 C2 2.31 2 4.62 2 7 C1.34 7 0.68 7 0 7 C0 4.69 0 2.38 0 0 Z " fill="#06191A" transform="translate(49,64)"/>
<path d="" fill="#188B94" transform="translate(0,0)"/>
<path d="" fill="#188B94" transform="translate(0,0)"/>
</svg>
