<?xml version="1.0" encoding="UTF-8"?>
<svg version="1.1" xmlns="http://www.w3.org/2000/svg" width="3507" height="2480">
<path d="M0 0 C0.78985291 0.30733063 1.57970581 0.61466125 2.39349365 0.93130493 C4.99805786 1.94756221 7.5988018 2.97318098 10.19921875 4 C11.09953827 4.35358582 11.99985779 4.70717163 12.92745972 5.07147217 C54.77715031 21.50948028 96.03706204 39.27513005 136.87579346 58.07525635 C138.80923879 58.96437008 140.74403204 59.85048118 142.67919922 60.73583984 C162.53436273 69.83276496 182.10360264 79.50426947 201.64333725 89.25559616 C203.60417563 90.23376577 205.56564926 91.21065106 207.5272522 92.18728638 C222.74283081 99.76707875 237.81842566 107.5461782 252.68969727 115.78710938 C255.59414253 117.39054132 258.51523416 118.96000917 261.44140625 120.5234375 C274.34408523 127.43203229 287.0325797 134.64944844 299.63671875 142.08740234 C303.12040475 144.13752224 306.61199283 146.17366196 310.10546875 148.20703125 C323.6607428 156.10284366 337.14537594 164.09049835 350.42236328 172.44921875 C352.84283351 173.97238369 355.26893063 175.48627584 357.6953125 177 C383.56576469 193.22762181 409.0365159 210.24985511 433.88671875 228 C435.09463598 228.85475499 436.30295472 229.70894294 437.51171875 230.5625 C463.81507157 249.18048061 489.42495051 268.78017547 514.390625 289.15234375 C517.20912762 291.45202888 520.04137 293.73355138 522.88671875 296 C526.58641078 294.71119914 528.99570408 293.25659021 531.82421875 290.5625 C537.2663624 285.57685195 543.04695881 281.07788642 548.87548828 276.56103516 C550.99677545 274.91457847 553.11208667 273.26066228 555.2265625 271.60546875 C569.38873714 260.53171453 583.7426039 249.75754709 598.34375 239.26953125 C601.28809956 237.1545936 604.22294962 235.02766545 607.1484375 232.88671875 C619.84853887 223.6107283 632.84127582 214.78155386 645.88671875 206 C647.00288574 205.24759033 647.00288574 205.24759033 648.14160156 204.47998047 C652.37454476 201.62971485 656.623493 198.80475378 660.88671875 196 C661.60504883 195.5270752 662.32337891 195.05415039 663.06347656 194.56689453 C706.79896802 165.82826095 752.00822374 139.4361292 798.03271484 114.54833984 C800.91263625 112.98593937 803.78452783 111.40944261 806.65625 109.83203125 C838.94770772 92.20577865 871.99429627 75.66313273 905.52539062 60.52685547 C909.25514051 58.83264747 912.9697078 57.10751309 916.68359375 55.37890625 C957.31421778 36.50869527 998.75998861 19.53059384 1040.45019531 3.15673828 C1043.66566731 1.8915724 1046.86145893 0.59869296 1050.03417969 -0.77001953 C1051.70528809 -1.47360596 1051.70528809 -1.47360596 1053.41015625 -2.19140625 C1054.71992432 -2.76870483 1054.71992432 -2.76870483 1056.05615234 -3.35766602 C1063.49050142 -5.04472591 1071.21498613 -2.29040602 1078.35546875 -0.25390625 C1079.36386307 0.02844879 1080.37225739 0.31080383 1081.41120911 0.60171509 C1084.73904156 1.53784022 1088.0631177 2.48646753 1091.38671875 3.4375 C1093.11745132 3.92994705 1093.11745132 3.92994705 1094.88314819 4.43234253 C1136.30462962 16.23854744 1177.4385111 29.18248535 1217.88671875 44 C1219.20298248 44.48182739 1219.20298248 44.48182739 1220.5458374 44.97338867 C1270.6614448 63.35227349 1319.59130142 84.29211665 1367.88671875 107 C1368.85125977 107.45068848 1369.81580078 107.90137695 1370.80957031 108.36572266 C1381.58345905 113.39991692 1392.20013516 118.64687427 1402.69140625 124.24609375 C1406.53351614 126.2936627 1410.39591085 128.29784552 1414.26953125 130.28515625 C1428.00585713 137.33451507 1441.56749665 144.60454272 1454.94726562 152.30957031 C1458.02103872 154.07724514 1461.10190304 155.8321068 1464.18359375 157.5859375 C1485.48084143 169.74365095 1506.41924812 182.48904026 1526.88671875 196 C1527.89202637 196.66161133 1528.89733398 197.32322266 1529.93310547 198.00488281 C1532.71916612 199.84043401 1535.50295951 201.67925682 1538.28411865 203.5222168 C1539.92800761 204.61095202 1541.57361244 205.69709499 1543.21923828 206.78320312 C1544.71173096 207.77610352 1544.71173096 207.77610352 1546.234375 208.7890625 C1547.13164307 209.38412598 1548.02891113 209.97918945 1548.95336914 210.59228516 C1549.9103772 211.289104 1549.9103772 211.289104 1550.88671875 212 C1550.88671875 212.33 1550.88671875 212.66 1550.88671875 213 C1544.25833539 213.82431415 1537.7174121 214.21693522 1531.04296875 214.39453125 C1528.85886838 214.46074208 1526.67478714 214.52758638 1524.49072266 214.5949707 C1523.33743469 214.62982574 1522.18414673 214.66468079 1520.99591064 214.70059204 C1423.56965207 217.72142719 1326.37998292 226.93080255 1086.88671875 272 C1085.89275085 272.24687561 1084.89878296 272.49375122 1083.87469482 272.74810791 C1008.98345273 291.3851651 935.39246904 314.94160764 863.88671875 344 C863.19447205 344.28123718 862.50222534 344.56247437 861.78900146 344.85223389 C841.61908217 353.06143386 821.74599703 361.88161962 801.98565674 371.02929688 C799.8871983 371.99977822 797.78727663 372.96702888 795.68701172 373.93359375 C766.73327589 387.27207232 738.25934852 401.48620009 710.64111328 417.42578125 C707.74584736 419.08051221 704.83330067 420.70046052 701.9140625 422.3125 C674.19300059 437.62713204 647.08143108 454.19505319 620.88671875 472 C620.10893066 472.52674316 619.33114258 473.05348633 618.52978516 473.59619141 C594.10942433 490.13843693 570.13233431 507.16378929 546.93554688 525.39208984 C545.04306399 526.87730103 543.14573162 528.35598959 541.24609375 529.83203125 C527.71802138 540.3638507 514.55632362 551.3342312 501.58398438 562.54101562 C499.87467201 564.01035548 498.15576676 565.46763872 496.43359375 566.921875 C489.47412612 572.81170632 482.72205319 578.87446684 476.0859375 585.12695312 C472.92347293 588.10594137 469.74555239 591.04312041 466.44921875 593.875 C463.17078389 596.69317943 460.13899393 599.7030007 457.13671875 602.8125 C455.32766015 604.57130697 453.49907737 606.18667244 451.578125 607.81640625 C445.37727361 613.20464317 439.64683122 619.09121989 433.8503418 624.90600586 C431.82907607 626.9326298 429.80252301 628.95385547 427.77539062 630.97460938 C419.23138888 639.51007784 419.23138888 639.51007784 411.17016602 648.49829102 C409.51007791 650.44069199 407.72414173 652.22593644 405.88671875 654 C402.71581877 657.12845964 399.76101915 660.36855352 396.859375 663.74609375 C394.92186495 665.95984286 392.93527485 668.12242248 390.93432617 670.27880859 C386.1016579 675.48883469 381.5155161 680.82373769 377.05859375 686.36328125 C374.94915526 688.92420028 372.75784227 691.37123455 370.51171875 693.8125 C366.45220452 698.26737562 362.73653976 702.9260309 359.0456543 707.68457031 C356.04617717 711.54589407 352.97532748 715.32364528 349.82421875 719.0625 C345.18877234 724.59021544 340.76820143 730.26148063 336.40771484 736.00634766 C334.66766086 738.2871311 332.9121663 740.55562616 331.15625 742.82421875 C323.42443784 752.84634842 315.99626369 762.99242063 308.94921875 773.5078125 C306.75871958 776.76377452 304.47803635 779.93593386 302.1484375 783.09375 C297.08102961 790.02309651 292.39217458 797.1896389 287.69921875 804.375 C287.23729126 805.08097321 286.77536377 805.78694641 286.29943848 806.51431274 C267.51379921 835.23907301 249.92734805 864.65258288 233.88671875 895 C233.39397461 895.9290918 232.90123047 896.85818359 232.39355469 897.81542969 C228.84403433 904.51955998 225.35313396 911.25257997 221.88671875 918 C221.34966309 919.0401123 220.81260742 920.08022461 220.25927734 921.15185547 C181.23433902 996.95839601 152.92664402 1078.25709409 115.63671875 1264.5625 C115.55949585 1265.22995239 115.48227295 1265.89740479 115.40270996 1266.58508301 C112.53485643 1291.71435654 111.50020006 1316.88558699 111.56866074 1342.16133499 C111.57432996 1344.29179205 111.5771317 1346.42224106 111.57974243 1348.55270386 C111.61702864 1369.5011751 112.06108601 1390.21161317 114.88671875 1411 C115.06056432 1412.33798777 115.23389031 1413.67604314 115.40673828 1415.01416016 C119.27807378 1444.56149141 125.28124763 1474.73306124 138.84179688 1501.51098633 C139.57689065 1502.9818018 140.23951853 1504.48844686 140.88671875 1506 C140.55671875 1506.66 140.22671875 1507.32 139.88671875 1508 C129.44515056 1491.93002704 122.95426993 1474.08443663 116.88671875 1456 C116.37842529 1454.49518066 116.37842529 1454.49518066 115.85986328 1452.95996094 C93.90938941 1387.1621032 85.25522437 1316.02224043 81.88671875 1247 C81.79994873 1245.28683594 81.79994873 1245.28683594 81.71142578 1243.5390625 C77.28606939 1152.56318976 85.1095092 1060.27749855 146.88671875 818 C139.27866965 816.44873362 131.66369367 814.93296508 124.04644775 813.4276123 C121.80454695 812.98373052 119.56315453 812.53733799 117.32177734 812.09082031 C54.70698446 799.64735121 -8.38654503 791.79216404 -72.11328125 788 C-73.1283374 787.93941406 -74.14339355 787.87882812 -75.18920898 787.81640625 C-131.9792285 784.48913682 -189.32731139 784.79833185 -246.11328125 788 C-247.23555115 788.06316406 -248.35782104 788.12632812 -249.51409912 788.19140625 C-342.51037127 793.50389785 -434.75327523 805.95670049 -526.11328125 824 C-527.06752991 824.18844482 -528.02177856 824.37688965 -529.00494385 824.57104492 C-636.36476859 845.84535238 -741.88766564 875.31247223 -861.55053711 915.14086914 C-862.32857193 915.40247833 -863.10660675 915.66408752 -863.90821838 915.93362427 C-865.35714575 916.42123976 -866.80560839 916.91023908 -868.25352478 917.40084839 C-873.00258134 919 -873.00258134 919 -874.11328125 919 C-876.70631147 901.36588476 -878.97182599 883.7967493 -880.11328125 866 C-880.20005127 864.67887207 -880.20005127 864.67887207 -880.28857422 863.33105469 C-885.48049445 780.66089455 -872.34194927 696.44708615 -811.30078125 547.125 C-810.78580078 546.08553223 -810.27082031 545.04606445 -809.74023438 543.97509766 C-808.73595517 541.97524128 -807.71522177 539.98355285 -806.67724609 538.00097656 C-805.58442051 535.90403431 -804.53593301 533.78365357 -803.52197266 531.64746094 C-802.69511963 530.02372559 -802.69511963 530.02372559 -801.8515625 528.3671875 C-801.37372314 527.3860498 -800.89588379 526.40491211 -800.40356445 525.39404297 C-796.86444901 521.69459024 -793.06111758 521.59753818 -788.11328125 521 C-787.10760605 520.86958313 -786.10193085 520.73916626 -785.06578064 520.60479736 C-781.61209267 520.18345039 -778.15573163 519.81106703 -774.6953125 519.44921875 C-773.39394852 519.31016617 -772.09258453 519.17111359 -770.75178528 519.02784729 C-766.47729325 518.57286478 -762.20160208 518.12978919 -757.92578125 517.6875 C-756.43340888 517.53228424 -754.94103829 517.37705136 -753.44866943 517.22180176 C-705.21063819 512.21753292 -656.85959153 508.41752266 -608.41241455 506.15429688 C-606.2207264 506.051794 -604.02911487 505.94763906 -601.83758545 505.84179688 C-531.47170938 502.45136373 -460.46666549 502.27773383 -390.11328125 506 C-388.23579193 506.09828094 -388.23579193 506.09828094 -386.32037354 506.19854736 C-285.31156611 511.53720646 -184.92983389 523.57301887 74.88671875 586 C76.21609467 586.41702179 76.21609467 586.41702179 77.57232666 586.84246826 C125.1531665 601.79626209 171.58184074 619.4405718 217.5461731 638.76722717 C220.98088653 640.20989889 224.42270858 641.62907992 227.88671875 643 C228.33885742 642.22100342 228.79099609 641.44200684 229.25683594 640.6394043 C230.99863429 637.64246058 232.74369454 634.64746045 234.49072266 631.65356445 C235.2344723 630.37759175 235.97705529 629.10093804 236.71826172 627.82348633 C246.61625426 610.7694212 257.2857798 594.22872581 268.24121094 577.83789062 C269.8895363 575.37078287 271.53286839 572.90040196 273.17578125 570.4296875 C282.39734992 556.59098699 291.87599984 542.93656528 301.76171875 529.5625 C302.33704346 528.78302002 302.91236816 528.00354004 303.50512695 527.20043945 C309.29713334 519.38897079 315.25728214 511.71212661 321.265625 504.06640625 C322.79117834 502.12178524 324.30908643 500.17149546 325.82421875 498.21875 C331.15254593 491.36657544 336.63666203 484.67850342 342.2734375 478.078125 C344.66554144 475.2729268 347.00127726 472.42536843 349.32421875 469.5625 C356.95756121 460.18870064 364.91681637 451.08768632 372.88671875 442 C358.17639691 432.48259901 343.1316335 423.63155371 327.88671875 415 C326.78763184 414.37689941 325.68854492 413.75379883 324.55615234 413.11181641 C309.30893068 404.49186804 293.88566231 396.28671081 278.30078125 388.30078125 C273.50427735 385.84179659 268.74507885 383.32769998 264.01171875 380.75 C254.14815612 375.46836692 244.0196188 370.73843715 233.88671875 366 C233.27570313 365.71340515 232.6646875 365.4268103 232.03515625 365.13153076 C182.49319076 341.89767596 131.70825519 321.56001962 79.88671875 304 C78.9882019 303.69491516 78.08968506 303.38983032 77.16394043 303.07550049 C-23.72789952 268.86630696 -128.07140322 245.1887316 -371.92578125 217.75 C-372.93451294 217.68692406 -372.93451294 217.68692406 -373.96362305 217.62257385 C-403.51934697 215.78141457 -433.07157256 214.78966688 -462.66992188 214.00421143 C-466.90823551 213.8913783 -471.1464979 213.77665145 -475.38476562 213.66210938 C-483.62755661 213.43960886 -491.87039967 213.21911892 -500.11328125 213 C-496.87854168 209.70492441 -493.84025505 206.96709541 -489.9296875 204.50390625 C-488.93146973 203.87033203 -487.93325195 203.23675781 -486.90478516 202.58398438 C-485.83921387 201.91689453 -484.77364258 201.24980469 -483.67578125 200.5625 C-481.97821374 199.48952542 -480.28064924 198.416546 -478.58337402 197.34310913 C-476.860017 196.25431186 -475.1348954 195.16834996 -473.40966797 194.08251953 C-470.43720543 192.20464177 -467.47719545 190.30945675 -464.5234375 188.40234375 C-437.45707167 170.95133301 -409.47033099 154.92868203 -381.13720703 139.63330078 C-379.04583179 138.50369475 -376.95574435 137.37170241 -374.86669922 136.23779297 C-349.56366601 122.50687022 -323.91361798 109.607427 -297.72021484 97.64746094 C-295.29443571 96.53949034 -292.87006049 95.42896702 -290.44775391 94.31347656 C-211.86457253 58.14025582 -130.14500004 29.10122316 -47.11328125 5 C-46.22125 4.74053589 -45.32921875 4.48107178 -44.41015625 4.21374512 C-39.60825257 2.81940491 -34.80213522 1.44203965 -29.98669434 0.09515381 C-28.59185189 -0.29579499 -27.19801123 -0.69033928 -25.80529785 -1.08880615 C-23.92713826 -1.62392327 -22.04375473 -2.14060426 -20.16015625 -2.65625 C-18.61086426 -3.08647461 -18.61086426 -3.08647461 -17.03027344 -3.52539062 C-10.8676921 -4.52807376 -5.63165759 -2.22634198 0 0 Z " fill="#00A28F" transform="translate(1232.11328125,264)"/>
<path d="M0 0 C4.40478044 0.26659574 8.81018878 0.51520473 13.21664429 0.75231934 C16.61958682 0.93789158 20.02136284 1.14125137 23.42333984 1.34375 C25.11523438 1.43172852 25.11523438 1.43172852 26.84130859 1.52148438 C33.42150047 1.94970562 37.27289205 2.67481021 41.88427734 7.671875 C50.12320711 18.48366353 57.41978115 29.89492579 64.73583984 41.34375 C65.26467773 42.16681641 65.79351563 42.98988281 66.33837891 43.83789062 C75.10679373 57.49034106 83.4614518 71.3876011 91.73583984 85.34375 C92.32123535 86.33004395 92.90663086 87.31633789 93.50976562 88.33251953 C108.43736859 113.54049259 122.44897304 139.21182445 135.71313477 165.33087158 C136.78476093 167.44003602 137.85888466 169.54791771 138.93310547 171.65576172 C173.65809046 239.87186555 214.69823345 322.38567432 213.79833984 400.46875 C213.79382812 401.23445313 213.78931641 402.00015625 213.78466797 402.7890625 C213.77309548 404.64066037 213.7551714 406.49221688 213.73583984 408.34375 C210.33194453 407.72074485 207.13126697 406.88521777 203.85620117 405.77172852 C202.90025055 405.44879318 201.94429993 405.12585785 200.9593811 404.7931366 C199.9226828 404.43987808 198.8859845 404.08661957 197.81787109 403.72265625 C195.53895051 402.95322177 193.25989116 402.1841982 190.98071289 401.41552734 C189.77264984 401.00727722 188.56458679 400.5990271 187.31991577 400.17840576 C79.66250646 363.86547022 -30.08991477 334.18886277 -415.26416016 277.34375 C-416.34109131 277.28316406 -417.41802246 277.22257812 -418.52758789 277.16015625 C-512.0697302 271.99564874 -606.39116939 275.30059521 -804.14916992 306.91992188 C-806.26416016 307.34375 -806.26416016 307.34375 -808.26416016 307.34375 C-807.97395996 308.12758057 -807.68375977 308.91141113 -807.38476562 309.71899414 C-793.73167992 346.86208881 -782.45735682 384.85491408 -773.26416016 423.34375 C-773.08151611 424.10697571 -772.89887207 424.87020142 -772.71069336 425.65655518 C-756.9137336 491.87663326 -746.72564636 559.3256939 -743.26416016 627.34375 C-743.2217923 628.1457785 -743.17942444 628.94780701 -743.13577271 629.7741394 C-742.2150717 647.60669657 -742.06180867 665.429355 -742.07666016 683.28125 C-742.07692703 684.00303059 -742.07719391 684.72481117 -742.07746887 685.4684639 C-742.11764627 772.30247208 -750.6432808 861.1125812 -800.26416016 997.34375 C-800.92416016 997.01375 -801.58416016 996.68375 -802.26416016 996.34375 C-802.02818115 995.73716553 -801.79220215 995.13058105 -801.54907227 994.50561523 C-780.31308881 939.63784407 -771.00503167 882.47666062 -771.07666016 823.71875 C-771.0772644 822.78899353 -771.07786865 821.85923706 -771.07849121 820.90130615 C-771.10918639 803.32007869 -771.74035623 785.86001791 -773.26416016 768.34375 C-773.3553714 767.28655762 -773.3553714 767.28655762 -773.44842529 766.20800781 C-776.83494253 727.46025335 -783.4251058 689.20420241 -792.26416016 651.34375 C-792.42080139 650.66711304 -792.57744263 649.99047607 -792.73883057 649.29333496 C-807.49817448 585.55883633 -829.93847294 523.71315694 -857.26416016 464.34375 C-857.59651672 463.61929687 -857.92887329 462.89484375 -858.27130127 462.1484375 C-870.8984651 434.62548263 -884.38118046 407.67331631 -899.49853516 381.42041016 C-901.48546945 377.95811121 -903.45366433 374.48550713 -905.42041016 371.01171875 C-906.49564501 369.11636706 -907.57141252 367.22131912 -908.64749146 365.32644653 C-909.33857021 364.10860104 -910.02876728 362.89025471 -910.71798706 361.6713562 C-914.65481315 354.71436964 -918.70355414 347.91178861 -923.26416016 341.34375 C-975.6183357 350.79903884 -1032.40331275 383.45456195 -1078.26416016 409.34375 C-1075.79042942 413.24141152 -1073.28704047 416.53147716 -1069.95166016 419.71875 C-1065.82285703 423.76041929 -1062.00778057 427.94683113 -1058.26416016 432.34375 C-1057.37133857 433.38446438 -1056.47807273 434.42479773 -1055.58447266 435.46484375 C-1053.53454221 437.85156786 -1051.48819541 440.24130538 -1049.44384766 442.6328125 C-1047.37445317 445.0519638 -1045.29638708 447.46313733 -1043.20947266 449.8671875 C-1036.78334921 457.28418712 -1030.61906388 464.85780145 -1024.60986328 472.61572266 C-1023.29163885 474.3084644 -1021.96041613 475.98993555 -1020.62353516 477.66796875 C-995.82843709 508.83257512 -973.40639688 541.99801956 -953.26416016 576.34375 C-952.61592285 577.44299805 -952.61592285 577.44299805 -951.95458984 578.56445312 C-909.51906258 650.75568837 -877.32463563 731.15259948 -862.95166016 833.78125 C-862.87025787 834.53349854 -862.78885559 835.28574707 -862.70498657 836.06079102 C-854.96332235 908.81585043 -863.5822372 984.1312747 -898.26416016 1049.34375 C-898.62413086 1050.0356543 -898.98410156 1050.72755859 -899.35498047 1051.44042969 C-908.61450502 1069.18718826 -919.97033098 1085.39069102 -933.26416016 1100.34375 C-933.77084229 1100.93438232 -934.27752441 1101.52501465 -934.79956055 1102.13354492 C-946.1234491 1115.29356218 -958.51973514 1127.89816764 -972.58984375 1138.11816406 C-974.33219363 1139.39354995 -976.04289537 1140.704469 -977.75244141 1142.0234375 C-987.74232271 1149.6530349 -998.33812104 1156.14637079 -1009.26416016 1162.34375 C-1010.50528564 1163.04781982 -1010.50528564 1163.04781982 -1011.77148438 1163.76611328 C-1096.85942912 1211.42671408 -1206.92942987 1218.99611786 -1300.11962891 1193.7890625 C-1371.70542707 1173.53660128 -1431.56893004 1127.14473817 -1468.10009766 1062.44921875 C-1494.98306622 1013.82532595 -1509.23516658 957.52684469 -1509.46728516 901.984375 C-1509.47434479 900.84915909 -1509.48140442 899.71394318 -1509.48867798 898.54432678 C-1509.60656082 873.9936033 -1509.64012276 849.70062812 -1506.26416016 825.34375 C-1506.16470093 824.62455383 -1506.0652417 823.90535767 -1505.96276855 823.16436768 C-1502.86414078 800.96589384 -1498.63803284 779.10491532 -1493.26416016 757.34375 C-1492.86874023 755.72146484 -1492.86874023 755.72146484 -1492.46533203 754.06640625 C-1476.38134399 688.84361766 -1448.38305585 625.77327577 -1413.99951172 568.24951172 C-1412.32442561 565.44466156 -1410.66495228 562.63102322 -1409.00634766 559.81640625 C-1391.72090204 530.72670563 -1371.98976947 503.06610922 -1351.26416016 476.34375 C-1350.78205078 475.71984375 -1350.29994141 475.0959375 -1349.80322266 474.453125 C-1344.00542016 466.95762343 -1338.04161742 459.63712266 -1331.88525391 452.43359375 C-1329.44112682 449.56797306 -1327.06720282 446.64969478 -1324.70166016 443.71875 C-1320.82486246 438.95424192 -1316.74944484 434.4073111 -1312.59228516 429.88671875 C-1310.65721754 427.77307946 -1308.76207719 425.63715152 -1306.88916016 423.46875 C-1299.93767672 415.48193925 -1292.73663247 407.71015651 -1285.18066406 400.29272461 C-1283.39746889 398.47931734 -1281.7406789 396.61526313 -1280.09228516 394.6796875 C-1276.03377533 390.01194373 -1271.70999686 385.6423926 -1267.32666016 381.28125 C-1266.56675781 380.51748047 -1265.80685547 379.75371094 -1265.02392578 378.96679688 C-1260.82582538 374.77586659 -1256.53409669 370.77073084 -1252.03930664 366.90063477 C-1249.6682343 364.82109573 -1247.46368714 362.60272366 -1245.26416016 360.34375 C-1241.77374575 356.81620353 -1238.21771702 353.46990526 -1234.44775391 350.24609375 C-1232.25634651 348.33694276 -1230.12104288 346.37383684 -1227.9909668 344.39672852 C-1222.88358323 339.65872908 -1217.66330271 335.15053137 -1212.23291016 330.78125 C-1208.74134084 327.91448782 -1205.34892543 324.94596766 -1201.95166016 321.96875 C-1196.0374537 316.80308252 -1189.97887644 311.88207862 -1183.77197266 307.07421875 C-1180.80527228 304.77605893 -1177.88094348 302.42980893 -1174.96411133 300.06884766 C-1146.11171323 276.74761832 -1115.52611085 255.29160642 -1084.26416016 235.34375 C-1083.5184375 234.86550781 -1082.77271484 234.38726563 -1082.00439453 233.89453125 C-1059.19869899 219.27806264 -1036.0223402 205.35582791 -1012.26416016 192.34375 C-1011.2802832 191.80298828 -1010.29640625 191.26222656 -1009.28271484 190.70507812 C-926.14870266 145.07039466 -838.79001308 107.94309238 -605.26416016 41.34375 C-604.25256836 41.12007751 -603.24097656 40.89640503 -602.19873047 40.66595459 C-499.37382939 17.99600915 -394.70940568 4.8679642 0 0 Z M-1189.57275391 481.87109375 C-1190.23194824 482.4115332 -1190.89114258 482.95197266 -1191.5703125 483.50878906 C-1192.62532959 484.38615723 -1192.62532959 484.38615723 -1193.70166016 485.28125 C-1194.42305176 485.87518555 -1195.14444336 486.46912109 -1195.88769531 487.08105469 C-1197.34292372 488.2793256 -1198.79671533 489.47934368 -1200.24902344 490.68115234 C-1201.96365894 492.09582011 -1203.68580525 493.49961431 -1205.41650391 494.89453125 C-1210.73352855 499.18934456 -1215.87766753 503.62580868 -1220.93212891 508.2265625 C-1223.02239905 510.12426169 -1225.13402131 511.99108415 -1227.26416016 513.84375 C-1243.69566993 528.19285062 -1260.47293599 542.9026017 -1274.65478516 559.515625 C-1276.2900245 561.37312988 -1277.99897809 563.10981009 -1279.76416016 564.84375 C-1283.47620132 568.50662506 -1286.8720719 572.38524094 -1290.26416016 576.34375 C-1291.14795145 577.36356151 -1292.03209261 578.38306988 -1292.91650391 579.40234375 C-1316.27165768 606.38886746 -1337.56642866 634.93152817 -1356.26416016 665.34375 C-1356.65909668 665.98054688 -1357.0540332 666.61734375 -1357.4609375 667.2734375 C-1367.25673283 683.08925604 -1376.13137767 699.51901701 -1384.24707031 716.25634766 C-1385.34754733 718.51488786 -1386.46829355 720.76284389 -1387.58837891 723.01171875 C-1416.27141528 781.20901883 -1433.46728329 846.90631532 -1433.51416016 911.90625 C-1433.5148349 912.75624573 -1433.51550964 913.60624146 -1433.51620483 914.48199463 C-1433.4358215 978.78715577 -1414.66372916 1045.15217551 -1369.72509766 1092.73046875 C-1367.59979981 1094.98733265 -1365.5769138 1097.28943404 -1363.57666016 1099.65625 C-1360.10793146 1103.62745809 -1356.31779399 1106.98036341 -1352.26416016 1110.34375 C-1351.73209961 1110.79878906 -1351.20003906 1111.25382812 -1350.65185547 1111.72265625 C-1304.54804019 1151.14658578 -1236.91544973 1174.99828641 -1176.02514648 1171.13842773 C-1108.502171 1165.61324126 -1042.62913796 1141.45243348 -996.90478516 1089.671875 C-994.62629629 1086.94092026 -992.43266945 1084.16281209 -990.26416016 1081.34375 C-989.8484375 1080.80975586 -989.43271484 1080.27576172 -989.00439453 1079.72558594 C-971.65080018 1057.32016745 -958.77407072 1032.34452572 -950.26416016 1005.34375 C-949.87019043 1004.11567627 -949.87019043 1004.11567627 -949.46826172 1002.86279297 C-946.11306033 992.28084447 -943.57047077 981.62703949 -941.51416016 970.71875 C-941.21614502 969.14855103 -941.21614502 969.14855103 -940.91210938 967.54663086 C-937.67993807 949.51211207 -936.89005561 931.70077419 -936.95166016 913.40625 C-936.95348297 912.2820163 -936.95530579 911.15778259 -936.95718384 909.9994812 C-937.00374199 892.92810714 -937.57189636 876.23134565 -940.26416016 859.34375 C-940.43044922 858.24337402 -940.59673828 857.14299805 -940.76806641 856.00927734 C-948.78826946 803.76656579 -966.67661302 754.47115137 -990.26416016 707.34375 C-990.7652832 706.3336084 -991.26640625 705.3234668 -991.78271484 704.28271484 C-1010.11623795 667.47292284 -1033.53750976 633.35367937 -1059.26416016 601.34375 C-1060.00923828 600.415625 -1060.75431641 599.4875 -1061.52197266 598.53125 C-1070.39119761 587.59571815 -1079.56909016 576.95878913 -1089.18212891 566.671875 C-1090.86992892 564.86543465 -1092.53098478 563.04261984 -1094.1706543 561.19213867 C-1100.09101214 554.51274328 -1106.2915984 548.16241424 -1112.61206055 541.86547852 C-1114.33124685 540.15167767 -1116.04498599 538.43255918 -1117.75830078 536.71289062 C-1122.88616546 531.5819234 -1128.02208699 526.5287515 -1133.54467773 521.81811523 C-1136.30174099 519.45407932 -1138.92825732 516.95288164 -1141.57666016 514.46875 C-1146.39037078 509.99079848 -1151.32626569 505.73793453 -1156.45556641 501.62109375 C-1159.02430057 499.53823976 -1161.54223102 497.41005504 -1164.05200195 495.25732422 C-1176.17445392 482.8920815 -1176.17445392 482.8920815 -1189.57275391 481.87109375 Z " fill="#00A28F" transform="translate(2942.26416015625,774.65625)"/>
<path d="M0 0 C16.92630229 -0.68385118 32.18795904 0.17906183 48.45245361 5.10540771 C49.46920166 5.40592041 50.48594971 5.70643311 51.5335083 6.01605225 C95.79312778 19.31002762 137.65450336 41.26367231 174.45245361 69.10540771 C175.61764379 69.97413127 176.78300009 70.84263207 177.94854736 71.71087646 C198.24111078 86.95355311 218.24053295 104.52231664 234.45245361 124.10540771 C235.16917236 124.96779053 235.88589111 125.83017334 236.62432861 126.71868896 C238.91767198 129.50071456 241.19000203 132.29821823 243.45245361 135.10540771 C244.15499268 135.97423584 244.85753174 136.84306396 245.58135986 137.73822021 C246.2194458 138.54001709 246.85753174 139.34181396 247.51495361 140.16790771 C248.08343018 140.88075928 248.65190674 141.59361084 249.23760986 142.32806396 C250.45245361 144.10540771 250.45245361 144.10540771 250.45245361 146.10540771 C242.27533016 146.22499553 234.18727628 145.85515274 226.03057861 145.30072021 C224.07220913 145.1728065 222.11383893 145.0449034 220.15543938 144.9174509 C218.08915345 144.78260902 216.02296476 144.64634743 213.95678711 144.50985718 C192.75683304 143.11315225 171.55572102 141.80571652 150.32745361 140.91790771 C149.47800171 140.88143127 148.6285498 140.84495483 147.75335693 140.80737305 C141.32088917 140.53469885 134.88736536 140.31173814 128.45245361 140.10540771 C127.15852692 140.06303986 125.86460022 140.020672 124.53146362 139.97702026 C97.9839557 139.12136406 71.45004265 138.9022431 44.88995361 138.91790771 C43.86879959 138.91817459 42.84764557 138.91844147 41.79554749 138.91871643 C-58.55418097 138.95148473 -158.61424342 145.09468469 -593.28747559 236.32861328 C-595.61122692 237.12729494 -597.93680575 237.92044746 -600.26287842 238.71234131 C-683.12339156 266.9495091 -764.70262878 301.93610153 -840.72674561 345.49798584 C-843.51385204 347.08620713 -846.31147842 348.65386117 -849.11395264 350.21478271 C-877.30938953 365.9433679 -904.8340062 382.97407577 -931.54754639 401.10540771 C-932.29101318 401.60927002 -933.03447998 402.11313232 -933.80047607 402.63226318 C-943.51425997 409.22361797 -953.16817285 415.88773101 -962.68426514 422.76165771 C-964.77074931 424.26637586 -966.86219728 425.76405835 -968.95379639 427.26165771 C-977.95105583 433.715244 -986.82837758 440.28029056 -995.54754639 447.10540771 C-996.66335723 447.97399311 -997.77924449 448.84248034 -998.89520264 449.71087646 C-1007.26715904 456.24230779 -1015.52042437 462.91554395 -1023.74334717 469.63323975 C-1025.33027685 470.92812283 -1026.92103375 472.2183125 -1028.51239014 473.50775146 C-1034.74916462 478.57226877 -1040.86566884 483.76595634 -1046.94989014 489.01165771 C-1049.28538018 491.02485897 -1051.6311104 493.02468932 -1053.98895264 495.01165771 C-1062.37420165 502.09630337 -1070.39902911 509.5098649 -1078.36224365 517.06365967 C-1079.89306826 518.49392291 -1081.43924108 519.90785293 -1082.996521 521.30926514 C-1092.36452644 529.7504474 -1101.25365252 538.660044 -1110.15814209 547.58563232 C-1112.86819034 550.30106786 -1115.58357888 553.01108135 -1118.29949951 555.72064209 C-1120.04526315 557.46706614 -1121.79071676 559.21380015 -1123.53582764 560.96087646 C-1124.33700516 561.76002975 -1125.13818268 562.55918304 -1125.96363831 563.3825531 C-1130.14070685 567.57691068 -1134.16757688 571.84359519 -1138.01954651 576.33929443 C-1140.56500494 579.28142028 -1143.25333194 582.08853223 -1145.92254639 584.91790771 C-1150.62907913 589.94229472 -1155.07612703 595.09524163 -1159.37957764 600.47259521 C-1161.63787102 603.21509925 -1164.00535972 605.81478362 -1166.42254639 608.41790771 C-1170.60739692 612.9703029 -1174.45815366 617.6900024 -1178.23944092 622.57489014 C-1181.16651971 626.35548844 -1184.14849211 630.08048725 -1187.18695068 633.77215576 C-1195.30316575 643.64030204 -1202.96335081 653.82506662 -1210.54754639 664.10540771 C-1211.08846924 664.83421143 -1211.62939209 665.56301514 -1212.18670654 666.31390381 C-1263.68694075 735.80954842 -1304.61455976 813.28010026 -1332.54754639 895.10540771 C-1332.93007568 896.22560303 -1333.31260498 897.34579834 -1333.70672607 898.49993896 C-1350.63785794 948.5571984 -1362.12114124 1001.30237396 -1365.54754639 1054.10540771 C-1365.63294678 1055.39455078 -1365.71834717 1056.68369385 -1365.80633545 1058.01190186 C-1366.52727326 1069.48081017 -1366.78986606 1080.9274919 -1366.79754639 1092.41790771 C-1366.79822113 1093.34205475 -1366.79889587 1094.26620178 -1366.79959106 1095.21835327 C-1366.73027374 1155.82566372 -1356.2119367 1217.64435223 -1330.56365967 1272.91156006 C-1329.56537955 1275.06690488 -1328.59889519 1277.23423105 -1327.63739014 1279.40618896 C-1314.5661555 1308.53165016 -1296.33747882 1336.74388171 -1274.54754639 1360.10540771 C-1273.41705498 1361.39227094 -1272.29185653 1362.68380732 -1271.17254639 1363.98040771 C-1261.43008081 1375.21229429 -1261.43008081 1375.21229429 -1250.60614014 1385.37103271 C-1248.03385963 1387.53819124 -1245.54354654 1389.78845597 -1243.04754639 1392.04290771 C-1242.19160889 1392.81505615 -1241.33567139 1393.58720459 -1240.45379639 1394.38275146 C-1239.82473389 1394.95122803 -1239.19567139 1395.51970459 -1238.54754639 1396.10540771 C-1238.87754639 1396.76540771 -1239.20754639 1397.42540771 -1239.54754639 1398.10540771 C-1272.63226506 1382.4714573 -1301.76016092 1360.95886027 -1324.54754639 1332.10540771 C-1325.27916992 1331.18840088 -1325.27916992 1331.18840088 -1326.02557373 1330.25286865 C-1383.58677959 1257.87481573 -1404.18461136 1160.48996733 -1404.73504639 1062.04290771 C-1404.73444214 1061.14254791 -1404.73383789 1060.24218811 -1404.73321533 1059.31454468 C-1404.59341474 981.54705376 -1390.77335004 904.40901284 -1289.03582764 649.67181396 C-1287.53798132 647.08891363 -1286.06996849 644.49115875 -1284.61004639 641.88665771 C-1266.8180899 610.20048246 -1246.76443863 579.27467754 -1225.04705811 550.12591553 C-1223.37786629 547.87677332 -1221.72952374 545.61316413 -1220.08270264 543.34759521 C-1213.22772342 533.93923875 -1206.18483797 524.72672338 -1198.83905029 515.69671631 C-1196.99784781 513.42810425 -1195.17954386 511.141443 -1193.36004639 508.85540771 C-1186.27110829 500.00515235 -1179.04516005 491.29066122 -1171.64129639 482.70306396 C-1169.62809514 480.36757392 -1167.62826478 478.0218437 -1165.64129639 475.66400146 C-1158.5542965 467.27596603 -1151.13864364 459.24797739 -1143.58148193 451.28289795 C-1142.17652628 449.77878086 -1140.78829549 448.25892854 -1139.41400146 446.72674561 C-1130.42448367 436.72811785 -1120.87379482 427.27929112 -1111.3583374 417.78582764 C-1108.85053197 415.28374989 -1106.34728831 412.77716361 -1103.84532642 410.26924419 C-1101.89013931 408.31041824 -1099.93254572 406.35401109 -1097.97424889 404.39829445 C-1096.60824509 403.03326456 -1095.24422336 401.66625209 -1093.88026428 400.29917908 C-1089.47558664 395.91093631 -1085.01888353 391.65159007 -1080.29319763 387.60951233 C-1077.29786988 385.02864957 -1074.43135782 382.30938871 -1071.54754639 379.60540771 C-1066.62238432 375.01339545 -1061.66408396 370.48442636 -1056.54754639 366.10540771 C-1055.50185638 365.20580422 -1054.4562957 364.30605038 -1053.41082764 363.40618896 C-1050.39452113 360.81257115 -1047.37202746 358.22628306 -1044.34686279 355.64300537 C-1043.18672379 354.65161386 -1042.02747544 353.65917867 -1040.86932373 352.66546631 C-1033.75685425 346.5632543 -1026.52049896 340.66279342 -1019.12567139 334.90618896 C-1016.13862185 332.57795161 -1013.18759256 330.2083564 -1010.24334717 327.82635498 C-1000.54172829 319.98883101 -990.56054668 312.53848871 -980.54754639 305.10540771 C-979.72641357 304.49342529 -978.90528076 303.88144287 -978.05926514 303.25091553 C-975.64123483 301.44896232 -973.21997153 299.65144719 -970.79754639 297.85540771 C-970.10306396 297.33801025 -969.40858154 296.82061279 -968.6930542 296.28753662 C-955.37338982 286.45199353 -941.51155504 277.34513961 -927.73504639 268.16790771 C-926.54991959 267.37829147 -926.54991959 267.37829147 -925.34085083 266.57272339 C-913.84514026 258.91873566 -902.34099756 251.29593995 -890.54754639 244.10540771 C-889.63134521 243.54659912 -888.71514404 242.98779053 -887.7711792 242.41204834 C-864.05926523 227.99483379 -840.05374308 214.12891673 -815.54754639 201.10540771 C-814.2430957 200.40979736 -814.2430957 200.40979736 -812.91229248 199.70013428 C-782.3255239 183.42822891 -751.27052631 168.03595008 -719.54754639 154.10540771 C-718.85697144 153.80137024 -718.16639648 153.49733276 -717.45489502 153.18408203 C-632.98119333 116.01224414 -545.3427331 86.88427174 -365.54754639 43.10540771 C-364.50805847 42.89291382 -363.46857056 42.68041992 -362.39758301 42.46148682 C-272.99590321 24.24105937 -182.37427712 12.34555079 0 0 Z " fill="#F0B700" transform="translate(2773.5475463867188,549.8945922851563)"/>
<path d="M0 0 C1.34215368 0.07349554 2.68431723 0.14681098 4.02648926 0.2199707 C13.5712672 0.74149252 23.11410106 1.29143465 32.65561295 1.86964417 C34.79306853 1.99882562 36.93063264 2.12609335 39.06820679 2.2532959 C43.01115019 2.48959643 46.95285557 2.74337924 50.89453125 3 C52.07894806 3.07083801 53.26336487 3.14167603 54.4836731 3.21466064 C55.56647552 3.28819763 56.64927795 3.36173462 57.76489258 3.4375 C58.70851151 3.49808594 59.65213043 3.55867187 60.62434387 3.62109375 C63 4 63 4 66 6 C65.32964722 6.51216064 65.32964722 6.51216064 64.64575195 7.03466797 C60.17437865 10.45129393 55.70464909 13.87006018 51.23583984 17.29003906 C49.27958544 18.78617423 47.32173254 20.28018048 45.36328125 21.7734375 C38.45996416 27.04619457 31.67341193 32.43882339 25 38 C24.484375 38.42925781 23.96875 38.85851562 23.4375 39.30078125 C16.73052269 44.89530319 10.15214151 50.59420974 3.73046875 56.515625 C1.60688589 58.44781198 -0.53633678 60.34181946 -2.70410156 62.22338867 C-6.69514911 65.71248309 -10.59995262 69.28218835 -14.46484375 72.91015625 C-15.14876694 73.55203384 -15.83269012 74.19391144 -16.53733826 74.85523987 C-23.65008266 81.56413034 -30.59167911 88.43998565 -37.49438477 95.36401367 C-39.58950092 97.46457104 -41.6900231 99.55961874 -43.79101562 101.65429688 C-45.15396713 103.01790811 -46.51660897 104.38182893 -47.87890625 105.74609375 C-48.49254532 106.35770859 -49.10618439 106.96932343 -49.73841858 107.59947205 C-53.43942658 111.32030388 -56.95418917 115.15753598 -60.37730408 119.13575745 C-63.16448014 122.337819 -66.08882527 125.41105899 -69 128.5 C-73.76678456 133.58627247 -78.4693222 138.70124592 -83 144 C-83.89799555 145.03293646 -84.79648068 146.0654474 -85.6953125 147.09765625 C-91.47007837 153.75600825 -97.07815337 160.48721742 -102.34667969 167.55712891 C-104.61464898 170.53286402 -106.42535013 172.70915421 -110 174 C-110.52207031 173.35675781 -111.04414062 172.71351563 -111.58203125 172.05078125 C-117.16099529 165.20165027 -122.82228122 158.42964722 -128.54980469 151.70458984 C-130.01803039 149.97880671 -131.48173533 148.24925728 -132.9453125 146.51953125 C-138.87158875 139.53700052 -144.94542822 132.72511043 -151.19140625 126.02734375 C-153.71000935 123.32451503 -156.17238185 120.57546702 -158.625 117.8125 C-162.48726547 113.49543878 -166.55565872 109.42511504 -170.67578125 105.35546875 C-172.64834837 103.35637972 -174.49616486 101.32673916 -176.3125 99.1875 C-183.23058505 91.12186529 -190.94462967 83.60908262 -199.04296875 76.73828125 C-201.46452989 74.58739361 -203.72374795 72.30388485 -206 70 C-209.5117655 66.45081843 -213.09008901 63.08031543 -216.8828125 59.8359375 C-219.40599455 57.6479383 -221.85554519 55.38706887 -224.3125 53.125 C-228.80013432 49.03242565 -233.40930228 45.14729166 -238.13671875 41.3359375 C-240.65407924 39.28221093 -243.12562727 37.18430443 -245.58666992 35.0637207 C-254.02113676 27.81267761 -262.90921223 21.22048559 -271.86230469 14.62890625 C-273.0225194 13.77381088 -274.18168021 12.91728302 -275.33959961 12.05908203 C-276.83683289 10.94959671 -278.33819396 9.84568788 -279.83984375 8.7421875 C-282 7 -282 7 -283 5 C-280.07441551 4.02480517 -277.81002741 3.7541143 -274.74902344 3.55102539 C-273.6630336 3.47741287 -272.57704376 3.40380035 -271.45814514 3.32795715 C-269.67675392 3.21395821 -269.67675392 3.21395821 -267.859375 3.09765625 C-266.61759995 3.01557419 -265.37582489 2.93349213 -264.09642029 2.84892273 C-249.05147286 1.86613777 -234.00132768 0.96524138 -218.94858551 0.11078644 C-217.14217049 0.00808307 -215.33582222 -0.09579244 -213.52947998 -0.19976807 C-142.73375619 -4.22940968 -70.79586249 -3.95864754 0 0 Z " fill="#00A28F" transform="translate(1866,194)"/>
<path d="M0 0 C13.86 0 27.72 0 42 0 C46.49976482 8.99952963 46.49976482 8.99952963 47.73242188 12.34765625 C48.01412231 13.10573074 48.29582275 13.86380524 48.58605957 14.64485168 C49.02299133 15.8415876 49.02299133 15.8415876 49.46875 17.0625 C49.78614136 17.92006393 50.10353271 18.77762787 50.43054199 19.66117859 C51.45781571 22.43928389 52.47888761 25.21962491 53.5 28 C54.20912204 29.92051841 54.91876192 31.84084569 55.62890625 33.76098633 C56.70618488 36.67401415 57.78314122 39.58715615 58.85839844 42.50093079 C62.20732197 51.57503329 65.59768428 60.63330765 69 69.6875 C69.51501874 71.05922798 70.02999416 72.43097223 70.54492188 73.80273438 C71.69606972 76.86869476 72.8477269 79.93446239 74 83 C75.57626997 80.63559504 76.60398692 78.75749618 77.65722656 76.17578125 C77.97273972 75.40687057 78.28825287 74.6379599 78.61332703 73.8457489 C78.95233536 73.00977676 79.29134369 72.17380463 79.640625 71.3125 C79.99981522 70.43386795 80.35900543 69.5552359 80.7290802 68.64997864 C81.90604563 65.76799648 83.07807883 62.88403659 84.25 60 C85.05897879 58.01644487 85.86814357 56.0329656 86.67749023 54.04956055 C90.57381623 44.48994805 94.44337653 34.91995182 98.26953125 25.33203125 C98.75916855 24.10515091 98.75916855 24.10515091 99.25869751 22.85348511 C100.79316618 19.00525345 102.32306483 15.15527616 103.84667969 11.30273438 C104.12259445 10.60774338 104.39850922 9.91275238 104.68278503 9.19670105 C105.41936863 7.34126169 106.15327066 5.48475841 106.88696289 3.62817383 C108 1 108 1 109 0 C110.35094982 -0.09268999 111.70667091 -0.11747326 113.06079102 -0.11352539 C113.92160782 -0.11344986 114.78242462 -0.11337433 115.66932678 -0.11329651 C116.60473801 -0.10813522 117.54014923 -0.10297394 118.50390625 -0.09765625 C119.45692123 -0.0962413 120.40993622 -0.09482635 121.39183044 -0.09336853 C124.44875165 -0.08775152 127.50560077 -0.07519616 130.5625 -0.0625 C132.62955624 -0.05748719 134.69661362 -0.05292391 136.76367188 -0.04882812 C141.84247588 -0.03777656 146.9212257 -0.02050055 152 0 C155.13189864 20.67880735 158.26127537 41.35799493 161.38763428 62.03764057 C162.83925208 71.63912696 164.29170093 81.24048627 165.74609375 90.84155273 C167.01345379 99.20795025 168.27926726 107.57458002 169.54320908 115.94149464 C170.21276563 120.37338932 170.88310627 124.80516225 171.55529785 129.2366581 C172.18756327 133.40510091 172.81776514 137.57385039 173.44636536 141.74284744 C173.67779584 143.27524698 173.90998893 144.80753157 174.14299011 146.33969307 C174.46032249 148.42715394 174.77494043 150.51500625 175.08886719 152.60298157 C175.26585144 153.77273686 175.44283569 154.94249216 175.62518311 156.14769459 C176 159 176 159 176 162 C161.81 162 147.62 162 133 162 C131.81957101 155.50764058 130.67197296 149.12014131 129.85498047 142.59106445 C129.75715271 141.82867966 129.65932495 141.06629486 129.55853271 140.2808075 C129.24199297 137.80864175 128.92954344 135.33597877 128.6171875 132.86328125 C128.39609859 131.13019103 128.17475021 129.3971339 127.95315552 127.66410828 C127.37520687 123.13868212 126.80074657 118.61282002 126.22705078 114.08685303 C125.63918062 109.45411405 125.04795831 104.82180299 124.45703125 100.18945312 C123.30143558 91.12671409 122.14953052 82.0635102 121 73 C115.05039369 86.57708971 109.19848228 100.18718672 103.54931641 113.89208984 C102.46595941 116.52007496 101.37980049 119.14688764 100.29296875 121.7734375 C97.89644142 127.56603782 95.50330418 133.36003605 93.11035156 139.15411377 C91.40991175 143.27066129 89.70587429 147.38570056 88 151.5 C87.59716797 152.47767334 87.19433594 153.45534668 86.77929688 154.46264648 C86.41900391 155.33091064 86.05871094 156.1991748 85.6875 157.09375 C85.38199219 157.83302734 85.07648438 158.57230469 84.76171875 159.33398438 C84 161 84 161 83 162 C81.65732587 162.08631874 80.31025678 162.10706473 78.96484375 162.09765625 C78.23644287 162.09515869 77.50804199 162.09266113 76.75756836 162.09008789 C75.8269458 162.08098389 74.89632324 162.07187988 73.9375 162.0625 C72.34318275 162.05101129 70.74886286 162.03988509 69.15454102 162.02905273 C67.76969401 162.01936849 66.38484701 162.00968424 65 162 C56.85563732 142.46151749 48.8888813 122.85806399 41.05053711 103.19500732 C39.6834792 99.76683549 38.31428433 96.33951726 36.9453125 92.91210938 C34.29487879 86.27553541 31.64665393 79.63808235 29 73 C28.13591443 78.82719506 27.27204661 84.65442232 26.40844727 90.48168945 C25.67650091 95.4204237 24.94382437 100.35904891 24.21069336 105.29760742 C22.58774291 116.23645246 20.96772415 127.1755324 19.390625 138.12109375 C19.15978923 139.7169654 18.92891536 141.31283155 18.69799805 142.90869141 C18.28093807 145.79186398 17.86917224 148.67572836 17.46020508 151.56005859 C17.27868896 152.81512207 17.09717285 154.07018555 16.91015625 155.36328125 C16.75683838 156.43876221 16.60352051 157.51424316 16.44555664 158.62231445 C16 161 16 161 15 162 C11.89748799 162.08874135 8.8173188 162.11518455 5.71484375 162.09765625 C4.78402481 162.0962413 3.85320587 162.09482635 2.8941803 162.09336853 C-0.09141191 162.08775172 -3.07693029 162.0751964 -6.0625 162.0625 C-8.08137913 162.05748716 -10.10025943 162.05292388 -12.11914062 162.04882812 C-17.07945572 162.03777683 -22.03971532 162.02050095 -27 162 C-26.37982438 153.31068842 -25.07231952 144.79441314 -23.60742188 136.21289062 C-23.36224436 134.75808511 -23.11742739 133.30321879 -22.87294006 131.84829712 C-22.21354695 127.93086441 -21.54898892 124.01432459 -20.88331032 120.0979557 C-20.18571755 115.98922611 -19.49251559 111.87975554 -18.79870605 107.77038574 C-17.63478575 100.88061557 -16.46760765 93.99140361 -15.29833984 87.10253906 C-13.94643056 79.13744883 -12.59916865 71.17158342 -11.25447989 63.20527124 C-9.95877831 55.52954006 -8.66035159 47.85427254 -7.36048889 40.179245 C-6.8078824 36.91628729 -6.25613705 33.6531857 -5.70506287 30.38996887 C-5.05722897 26.55476732 -4.40698222 22.71998249 -3.75485039 18.88550949 C-3.51577855 17.47752632 -3.27752198 16.06940443 -3.04013252 14.66113663 C-2.71651307 12.74218099 -2.38965531 10.82377231 -2.06262207 8.90539551 C-1.88048409 7.831045 -1.6983461 6.75669449 -1.51068878 5.6497879 C-1 3 -1 3 0 0 Z " fill="#0D0E12" transform="translate(1250,2124)"/>
<path d="M0 0 C2.48536022 1.94392017 4.88975159 3.94816436 7.26953125 6.01953125 C7.87152344 6.52613281 8.47351562 7.03273438 9.09375 7.5546875 C18.36829022 16.00770668 25.36990411 28.22553698 29.26953125 40.01953125 C29.58664062 40.91671875 29.90375 41.81390625 30.23046875 42.73828125 C36.64804124 64.64045527 32.8266311 91.04152166 22.26953125 111.01953125 C10.2226213 131.60170129 -7.68699477 145.55053657 -30.81152344 151.734375 C-56.48240621 158.25623117 -83.20449339 155.45513573 -106.2578125 142.18359375 C-126.63648506 129.82982852 -138.82015895 110.64267538 -144.73046875 88.01953125 C-149.89253925 66.32387265 -146.88983932 43.00679625 -135.796875 23.64453125 C-122.28318712 3.01446094 -102.28671241 -10.99044196 -78.22460938 -16.56054688 C-50.60017487 -22.15713382 -22.82787089 -16.55755442 0 0 Z M-86.6328125 34.11328125 C-94.89704266 41.62341965 -101.12258335 50.81806106 -101.96875 62.234375 C-102.25945599 76.81557557 -98.72962346 89.32156563 -88.62890625 100.3046875 C-78.73139656 109.66010744 -67.63069964 113.58155755 -54.171875 113.33203125 C-40.99621869 112.13560389 -30.84900373 106.16863162 -22.2734375 96.3515625 C-13.71049736 85.83757271 -10.61019127 73.38168154 -11.73046875 60.01953125 C-14.27954819 47.30660642 -21.34472525 37.82253272 -32.01953125 30.671875 C-49.501392 20.01650454 -70.72730244 20.87271556 -86.6328125 34.11328125 Z " fill="#0D0E12" transform="translate(1987.73046875,2136.98046875)"/>
<path d="M0 0 C85.54639571 0 85.54639571 0 98.3125 11.625 C108.03843607 21.98095622 108.45918055 34.162875 108.2734375 47.54296875 C107.94951249 56.98971251 105.20720667 63.45045103 98.78125 70.34375 C96.94613677 72.05008335 95.03310862 73.53758854 93 75 C93.68964844 75.21914062 94.37929687 75.43828125 95.08984375 75.6640625 C105.21411741 79.08048406 113.60251404 83.43920932 119 93 C121.83290156 99.21967169 123.56061781 105.18957603 124 112 C124.0515625 112.66 124.103125 113.32 124.15625 114 C124.70052614 126.33692583 121.26813516 137.93410219 113.06640625 147.1796875 C85.53921602 173.94924864 27.40802858 162 0 162 C0 108.54 0 55.08 0 0 Z M42 33 C42 43.23 42 53.46 42 64 C56.09262541 63.88100667 56.09262541 63.88100667 66.9375 56.9375 C69.15479597 52.89419559 69.30826413 49.54689598 69 45 C67.25980376 40.32894693 65.23701227 37.63636319 61 35 C54.21441892 32.66014445 49.62528845 33 42 33 Z M42 96 C42 106.89 42 117.78 42 129 C46.888125 129.0928125 46.888125 129.0928125 51.875 129.1875 C52.88030762 129.21481201 53.88561523 129.24212402 54.92138672 129.27026367 C62.60843957 129.33984669 69.94722638 128.54397802 76 123.5 C79.91895063 118.60131171 80.43386452 115.87038861 80.3203125 109.73046875 C79.76925496 105.03303925 77.48360376 102.43244501 74.1875 99.25 C67.47374309 95.41356748 60.5751655 95.75469515 53.0625 95.875 C49.411875 95.91625 45.76125 95.9575 42 96 Z " fill="#0D0E12" transform="translate(2172,2124)"/>
<path d="M0 0 C93.72455441 0 93.72455441 0 109.74609375 13.70703125 C121.43828075 25.60185581 124.26827421 40.55916614 124.24658203 56.58813477 C124.04703051 70.83419952 120.47460761 84.04954006 111 95 C96.60952911 108.33281935 77.61265695 109.49671489 59.0625 109.1875 C53.761875 109.125625 48.46125 109.06375 43 109 C43 126.49 43 143.98 43 162 C28.81 162 14.62 162 0 162 C0 108.54 0 55.08 0 0 Z M43 35 C43 47.87 43 60.74 43 74 C47.95 74.0928125 47.95 74.0928125 53 74.1875 C54.02351563 74.21481201 55.04703125 74.24212402 56.1015625 74.27026367 C63.42967483 74.33619967 69.1075655 73.45228143 74.875 68.5625 C80.10788092 62.25226124 79.70381878 55.96473408 79 48 C77.76489528 43.16312283 75.77569523 40.16469731 71.5 37.5625 C67.09775038 35.59720999 63.82046834 34.87304592 59.015625 34.90234375 C58.17290039 34.90484131 57.33017578 34.90733887 56.46191406 34.90991211 C55.40198242 34.91901611 54.34205078 34.92812012 53.25 34.9375 C48.17625 34.9684375 48.17625 34.9684375 43 35 Z " fill="#0D0E12" transform="translate(1575,2124)"/>
</svg>
